<svg width="350" height="153" viewBox="0 0 350 153" fill="none" xmlns="http://www.w3.org/2000/svg">
<rect x="1" y="1" width="348" height="151" rx="7" fill="#F8F8FD"/>
<g clip-path="url(#clip0_34_2874)">
<path d="M179 34.6667H179.013" stroke="#25324B" stroke-width="2" stroke-linecap="round" stroke-linejoin="round"/>
<path d="M181.667 29.3333H168.334C166.125 29.3333 164.334 31.1241 164.334 33.3333V46.6666C164.334 48.8757 166.125 50.6666 168.334 50.6666H181.667C183.876 50.6666 185.667 48.8757 185.667 46.6666V33.3333C185.667 31.1241 183.876 29.3333 181.667 29.3333Z" stroke="#25324B" stroke-width="2" stroke-linecap="round" stroke-linejoin="round"/>
<path d="M164.334 43.9999L169.667 38.6666C170.275 38.0815 170.965 37.7734 171.667 37.7734C172.369 37.7734 173.059 38.0815 173.667 38.6666L180.334 45.3333" stroke="#25324B" stroke-width="2" stroke-linecap="round" stroke-linejoin="round"/>
<path d="M177.666 42.6667L178.999 41.3334C179.607 40.7482 180.297 40.4402 180.999 40.4402C181.701 40.4402 182.391 40.7482 182.999 41.3334L185.666 44" stroke="#25324B" stroke-width="2" stroke-linecap="round" stroke-linejoin="round"/>
</g>
<path d="M48.7851 87.176C47.9531 87.176 47.1797 87.032 46.4651 86.744C45.7504 86.4453 45.1211 86.0347 44.5771 85.512C44.0437 84.9787 43.6224 84.3653 43.3131 83.672C43.0144 82.968 42.8651 82.2107 42.8651 81.4C42.8651 80.5893 43.0144 79.8373 43.3131 79.144C43.6224 78.44 44.0437 77.8267 44.5771 77.304C45.1211 76.7707 45.7504 76.36 46.4651 76.072C47.1797 75.7733 47.9531 75.624 48.7851 75.624C49.6171 75.624 50.3904 75.7733 51.1051 76.072C51.8304 76.36 52.4597 76.7707 52.9931 77.304C53.5371 77.8267 53.9584 78.44 54.2571 79.144C54.5557 79.8373 54.7051 80.5893 54.7051 81.4C54.7051 82.2107 54.5557 82.968 54.2571 83.672C53.9584 84.3653 53.5371 84.9787 52.9931 85.512C52.4597 86.0347 51.8304 86.4453 51.1051 86.744C50.3904 87.032 49.6171 87.176 48.7851 87.176ZM48.7851 85.048C49.2971 85.048 49.7664 84.9573 50.1931 84.776C50.6197 84.584 50.9931 84.328 51.3131 84.008C51.6331 83.6773 51.8837 83.288 52.0651 82.84C52.2464 82.392 52.3371 81.912 52.3371 81.4C52.3371 80.8773 52.2464 80.3973 52.0651 79.96C51.8837 79.512 51.6331 79.128 51.3131 78.808C50.9931 78.4773 50.6197 78.2213 50.1931 78.04C49.7664 77.848 49.2971 77.752 48.7851 77.752C48.2837 77.752 47.8197 77.848 47.3931 78.04C46.9664 78.2213 46.5931 78.4773 46.2731 78.808C45.9531 79.128 45.7024 79.512 45.5211 79.96C45.3397 80.3973 45.2491 80.872 45.2491 81.384C45.2491 81.9067 45.3397 82.392 45.5211 82.84C45.7024 83.288 45.9531 83.6773 46.2731 84.008C46.5931 84.328 46.9664 84.584 47.3931 84.776C47.8197 84.9573 48.2837 85.048 48.7851 85.048ZM46.9931 74.456C46.6731 74.456 46.4011 74.3493 46.1771 74.136C45.9531 73.9227 45.8411 73.6453 45.8411 73.304C45.8411 72.9733 45.9531 72.7013 46.1771 72.488C46.4011 72.264 46.6731 72.152 46.9931 72.152C47.3237 72.152 47.5957 72.264 47.8091 72.488C48.0331 72.7013 48.1451 72.9733 48.1451 73.304C48.1451 73.6453 48.0331 73.9227 47.8091 74.136C47.5957 74.3493 47.3237 74.456 46.9931 74.456ZM50.5771 74.456C50.2571 74.456 49.9851 74.3493 49.7611 74.136C49.5371 73.9227 49.4251 73.6453 49.4251 73.304C49.4251 72.9733 49.5371 72.7013 49.7611 72.488C49.9851 72.264 50.2571 72.152 50.5771 72.152C50.9077 72.152 51.1797 72.264 51.3931 72.488C51.6171 72.7013 51.7291 72.9733 51.7291 73.304C51.7291 73.6453 51.6171 73.9227 51.3931 74.136C51.1797 74.3493 50.9077 74.456 50.5771 74.456ZM55.7367 87V85.448L59.9287 80.504H55.7687V78.664H62.7287V80.216L58.5367 85.16H62.8407V87H55.7367ZM68.0951 90.424C67.4551 90.424 66.8364 90.3547 66.2391 90.216C65.6417 90.088 65.1031 89.9013 64.6231 89.656L65.3911 87.96C65.8497 88.184 66.2977 88.3493 66.7351 88.456C67.1724 88.5627 67.6097 88.616 68.0471 88.616C68.6977 88.616 69.1884 88.4773 69.5191 88.2C69.8604 87.9227 70.0311 87.5067 70.0311 86.952V86.296C69.3484 86.7973 68.5857 87.048 67.7431 87.048C66.9537 87.048 66.2391 86.8613 65.5991 86.488C64.9697 86.104 64.4631 85.5867 64.0791 84.936C63.7057 84.2853 63.5191 83.5653 63.5191 82.776C63.5191 81.9867 63.7057 81.272 64.0791 80.632C64.4631 79.992 64.9804 79.4853 65.6311 79.112C66.2817 78.728 67.0071 78.536 67.8071 78.536C68.2124 78.536 68.6071 78.5947 68.9911 78.712C69.3751 78.8293 69.7324 78.9947 70.0631 79.208V78.664H72.2231V86.984C72.2231 88.0827 71.8657 88.9307 71.1511 89.528C70.4471 90.1253 69.4284 90.424 68.0951 90.424ZM68.0791 85.192C68.4844 85.192 68.8524 85.128 69.1831 85C69.5137 84.8613 69.7964 84.6693 70.0311 84.424V81.16C69.7964 80.9253 69.5084 80.744 69.1671 80.616C68.8364 80.4773 68.4791 80.408 68.0951 80.408C67.6364 80.408 67.2257 80.5147 66.8631 80.728C66.5004 80.9307 66.2124 81.2133 65.9991 81.576C65.7857 81.928 65.6791 82.328 65.6791 82.776C65.6791 83.2347 65.7804 83.6453 65.9831 84.008C66.1964 84.3707 66.4844 84.6587 66.8471 84.872C67.2204 85.0853 67.6311 85.192 68.0791 85.192ZM78.0143 87.16C77.1823 87.16 76.425 86.968 75.7423 86.584C75.0703 86.2 74.537 85.6827 74.1423 85.032C73.7476 84.3813 73.5503 83.6507 73.5503 82.84C73.5503 82.0293 73.737 81.2987 74.1103 80.648C74.4943 79.9973 75.0116 79.48 75.6623 79.096C76.313 78.712 77.0383 78.52 77.8383 78.52C78.6383 78.52 79.3476 78.7173 79.9663 79.112C80.585 79.5067 81.0703 80.04 81.4223 80.712C81.785 81.384 81.9663 82.1467 81.9663 83V83.576H75.7903C75.8863 83.9067 76.041 84.2053 76.2543 84.472C76.4783 84.7387 76.7503 84.9467 77.0703 85.096C77.401 85.2453 77.753 85.32 78.1263 85.32C78.4996 85.32 78.841 85.2613 79.1503 85.144C79.4703 85.0267 79.7423 84.8613 79.9663 84.648L81.4063 85.96C80.8943 86.376 80.3663 86.68 79.8223 86.872C79.289 87.064 78.6863 87.16 78.0143 87.16ZM75.7583 82.008H79.8063C79.7316 81.6773 79.593 81.3893 79.3903 81.144C79.1983 80.888 78.9636 80.6907 78.6863 80.552C78.4196 80.4027 78.121 80.328 77.7903 80.328C77.449 80.328 77.1396 80.3973 76.8623 80.536C76.585 80.6747 76.3503 80.872 76.1583 81.128C75.977 81.3733 75.8436 81.6667 75.7583 82.008ZM87.0838 90.776C86.2838 90.776 85.6118 90.536 85.0678 90.056L85.7878 89.288C86.1931 89.5973 86.6091 89.752 87.0358 89.752C87.3238 89.752 87.5425 89.6933 87.6918 89.576C87.8411 89.4693 87.9158 89.3253 87.9158 89.144C87.9158 88.9627 87.8358 88.8187 87.6758 88.712C87.5265 88.6053 87.3131 88.552 87.0358 88.552H86.3798L86.7958 87.112C86.0705 87.0267 85.4198 86.7867 84.8438 86.392C84.2678 85.9973 83.8145 85.496 83.4838 84.888C83.1531 84.2693 82.9878 83.5867 82.9878 82.84C82.9878 82.0187 83.1798 81.2827 83.5638 80.632C83.9478 79.9813 84.4705 79.464 85.1318 79.08C85.7931 78.696 86.5345 78.504 87.3558 78.504C88.0171 78.504 88.6465 78.632 89.2438 78.888C89.8518 79.144 90.3745 79.512 90.8118 79.992L89.4678 81.416C89.1585 81.0747 88.8331 80.824 88.4918 80.664C88.1611 80.4933 87.7985 80.408 87.4038 80.408C86.9771 80.408 86.5931 80.5147 86.2518 80.728C85.9211 80.9413 85.6545 81.2293 85.4518 81.592C85.2598 81.9547 85.1638 82.3707 85.1638 82.84C85.1638 83.288 85.2598 83.6987 85.4518 84.072C85.6545 84.4347 85.9318 84.7227 86.2838 84.936C86.6358 85.1387 87.0251 85.24 87.4518 85.24C87.8251 85.24 88.1718 85.1653 88.4918 85.016C88.8225 84.856 89.1371 84.6213 89.4358 84.312L90.7478 85.688C90.3745 86.0827 89.9371 86.408 89.4358 86.664C88.9345 86.9093 88.4065 87.064 87.8518 87.128L87.6758 87.736C88.1451 87.768 88.5131 87.912 88.7798 88.168C89.0571 88.424 89.1958 88.7547 89.1958 89.16C89.1958 89.6187 88.9931 90.0027 88.5878 90.312C88.1825 90.6213 87.6811 90.776 87.0838 90.776ZM91.8874 87V78.664H94.0794V79.304C94.6768 78.7707 95.4021 78.504 96.2554 78.504C96.7994 78.504 97.2848 78.616 97.7114 78.84C98.1381 79.0533 98.4901 79.3573 98.7674 79.752C99.1088 79.3467 99.5088 79.0373 99.9674 78.824C100.437 78.6107 100.954 78.504 101.519 78.504C102.149 78.504 102.698 78.648 103.167 78.936C103.647 79.2133 104.021 79.6027 104.287 80.104C104.565 80.5947 104.703 81.1707 104.703 81.832V87H102.527V82.152C102.527 81.608 102.383 81.1813 102.095 80.872C101.807 80.552 101.423 80.392 100.943 80.392C100.613 80.392 100.309 80.4613 100.031 80.6C99.7648 80.7387 99.5354 80.9467 99.3434 81.224C99.3541 81.32 99.3648 81.416 99.3754 81.512C99.3861 81.608 99.3914 81.7147 99.3914 81.832V87H97.1994V82.152C97.1994 81.608 97.0554 81.1813 96.7674 80.872C96.4901 80.552 96.1114 80.392 95.6314 80.392C95.3008 80.392 95.0021 80.456 94.7354 80.584C94.4794 80.712 94.2608 80.904 94.0794 81.16V87H91.8874ZM106.372 87V78.664H108.564V87H106.372ZM107.46 77.672C107.118 77.672 106.825 77.5493 106.58 77.304C106.334 77.0587 106.212 76.7653 106.212 76.424C106.212 76.072 106.334 75.7787 106.58 75.544C106.825 75.2987 107.118 75.176 107.46 75.176C107.812 75.176 108.105 75.2987 108.34 75.544C108.585 75.7787 108.708 76.072 108.708 76.424C108.708 76.7653 108.585 77.0587 108.34 77.304C108.105 77.5493 107.812 77.672 107.46 77.672ZM113.094 90.776C112.305 90.776 111.638 90.536 111.094 90.056L111.814 89.288C112.209 89.5973 112.625 89.752 113.062 89.752C113.35 89.752 113.569 89.6933 113.718 89.576C113.867 89.4693 113.942 89.3253 113.942 89.144C113.942 88.9627 113.862 88.8187 113.702 88.712C113.553 88.6053 113.339 88.552 113.062 88.552H112.39L112.806 87.144C112.166 87.0907 111.569 86.9733 111.014 86.792C110.47 86.6 109.99 86.3387 109.574 86.008L110.662 84.552C111.142 84.872 111.601 85.112 112.038 85.272C112.486 85.4213 112.929 85.496 113.366 85.496C113.857 85.496 114.246 85.416 114.534 85.256C114.833 85.096 114.982 84.8827 114.982 84.616C114.982 84.4027 114.897 84.232 114.726 84.104C114.566 83.976 114.305 83.8853 113.942 83.832L112.342 83.592C111.51 83.464 110.881 83.1973 110.454 82.792C110.027 82.376 109.814 81.8373 109.814 81.176C109.814 80.632 109.953 80.1627 110.23 79.768C110.518 79.3733 110.918 79.0693 111.43 78.856C111.953 78.6427 112.571 78.536 113.286 78.536C113.894 78.536 114.486 78.6213 115.062 78.792C115.649 78.9627 116.198 79.224 116.71 79.576L115.654 80.984C115.195 80.7067 114.758 80.504 114.342 80.376C113.926 80.248 113.505 80.184 113.078 80.184C112.683 80.184 112.363 80.2587 112.118 80.408C111.883 80.5573 111.766 80.7547 111.766 81C111.766 81.2133 111.851 81.384 112.022 81.512C112.193 81.64 112.486 81.7307 112.902 81.784L114.486 82.024C115.318 82.1413 115.953 82.408 116.39 82.824C116.827 83.2293 117.046 83.7573 117.046 84.408C117.046 84.888 116.907 85.3253 116.63 85.72C116.363 86.1147 115.99 86.4347 115.51 86.68C115.03 86.9253 114.481 87.0747 113.862 87.128L113.686 87.736C114.155 87.768 114.523 87.912 114.79 88.168C115.067 88.424 115.206 88.7547 115.206 89.16C115.206 89.6187 115.003 90.0027 114.598 90.312C114.203 90.6213 113.702 90.776 113.094 90.776ZM118.137 87V78.664H120.329V87H118.137ZM119.225 77.672C118.884 77.672 118.591 77.5493 118.345 77.304C118.1 77.0587 117.977 76.7653 117.977 76.424C117.977 76.072 118.1 75.7787 118.345 75.544C118.591 75.2987 118.884 75.176 119.225 75.176C119.577 75.176 119.871 75.2987 120.105 75.544C120.351 75.7787 120.473 76.072 120.473 76.424C120.473 76.7653 120.351 77.0587 120.105 77.304C119.871 77.5493 119.577 77.672 119.225 77.672ZM122.044 87V78.664H124.236V79.352C124.865 78.7867 125.644 78.504 126.572 78.504C127.222 78.504 127.793 78.648 128.284 78.936C128.785 79.2133 129.174 79.6027 129.452 80.104C129.729 80.5947 129.868 81.1707 129.868 81.832V87H127.676V82.152C127.676 81.608 127.521 81.1813 127.212 80.872C126.902 80.552 126.481 80.392 125.948 80.392C125.574 80.392 125.244 80.4667 124.956 80.616C124.668 80.7547 124.428 80.9573 124.236 81.224V87H122.044ZM131.528 87V78.664H133.72V87H131.528ZM132.616 77.672C132.275 77.672 131.981 77.5493 131.736 77.304C131.491 77.0587 131.368 76.7653 131.368 76.424C131.368 76.072 131.491 75.7787 131.736 75.544C131.981 75.2987 132.275 75.176 132.616 75.176C132.968 75.176 133.261 75.2987 133.496 75.544C133.741 75.7787 133.864 76.072 133.864 76.424C133.864 76.7653 133.741 77.0587 133.496 77.304C133.261 77.5493 132.968 77.672 132.616 77.672ZM138.797 87V75.8H144.061C144.818 75.8 145.48 75.928 146.045 76.184C146.61 76.44 147.053 76.8027 147.373 77.272C147.693 77.7307 147.853 78.264 147.853 78.872C147.853 79.3627 147.725 79.816 147.469 80.232C147.224 80.6373 146.888 80.968 146.461 81.224C147.005 81.48 147.437 81.8267 147.757 82.264C148.077 82.7013 148.237 83.1973 148.237 83.752C148.237 84.392 148.072 84.9573 147.741 85.448C147.421 85.9387 146.962 86.3227 146.365 86.6C145.778 86.8667 145.096 87 144.317 87H138.797ZM141.117 80.376H143.917C144.418 80.376 144.813 80.2587 145.101 80.024C145.4 79.7787 145.549 79.4533 145.549 79.048C145.549 78.6427 145.4 78.3227 145.101 78.088C144.813 77.8427 144.418 77.72 143.917 77.72H141.117V80.376ZM141.117 85.08H144.141C144.674 85.08 145.101 84.952 145.421 84.696C145.741 84.4293 145.901 84.0773 145.901 83.64C145.901 83.192 145.741 82.84 145.421 82.584C145.101 82.3173 144.674 82.184 144.141 82.184H141.117V85.08ZM152.791 87.16C152.151 87.16 151.581 87.0213 151.079 86.744C150.589 86.456 150.199 86.0613 149.911 85.56C149.634 85.0587 149.495 84.4827 149.495 83.832V78.664H151.687V83.512C151.687 84.0453 151.842 84.472 152.151 84.792C152.471 85.112 152.898 85.272 153.431 85.272C153.794 85.272 154.119 85.2027 154.407 85.064C154.706 84.9147 154.951 84.7067 155.143 84.44V78.664H157.335V87H155.143V86.328C154.503 86.8827 153.719 87.16 152.791 87.16ZM159.044 87V78.664H161.236V79.592C161.502 79.2293 161.822 78.952 162.196 78.76C162.569 78.568 162.99 78.472 163.46 78.472C163.865 78.4827 164.169 78.5467 164.372 78.664V80.584C164.212 80.5093 164.036 80.456 163.844 80.424C163.652 80.3813 163.454 80.36 163.252 80.36C162.825 80.36 162.436 80.4667 162.084 80.68C161.732 80.8933 161.449 81.1973 161.236 81.592V87H159.044ZM167.997 87.144C167.399 87.144 166.871 87.0373 166.413 86.824C165.954 86.6 165.597 86.296 165.341 85.912C165.085 85.528 164.957 85.0853 164.957 84.584C164.957 83.784 165.255 83.1653 165.853 82.728C166.461 82.28 167.293 82.056 168.349 82.056C169.074 82.056 169.757 82.168 170.397 82.392V81.784C170.397 81.304 170.247 80.9413 169.949 80.696C169.65 80.4507 169.213 80.328 168.637 80.328C168.285 80.328 167.906 80.3867 167.501 80.504C167.095 80.6107 166.626 80.7813 166.093 81.016L165.293 79.4C165.954 79.1013 166.583 78.8773 167.181 78.728C167.789 78.5787 168.397 78.504 169.005 78.504C170.125 78.504 170.994 78.776 171.613 79.32C172.242 79.8533 172.557 80.6107 172.557 81.592V87H170.397V86.408C170.055 86.664 169.687 86.8507 169.293 86.968C168.898 87.0853 168.466 87.144 167.997 87.144ZM167.037 84.536C167.037 84.856 167.175 85.112 167.453 85.304C167.73 85.4853 168.098 85.576 168.557 85.576C168.919 85.576 169.255 85.5333 169.565 85.448C169.874 85.352 170.151 85.2133 170.397 85.032V83.816C170.13 83.7093 169.853 83.6293 169.565 83.576C169.277 83.5227 168.967 83.496 168.637 83.496C168.135 83.496 167.741 83.592 167.453 83.784C167.175 83.9653 167.037 84.216 167.037 84.536ZM174.875 90.44C174.683 90.44 174.497 90.4293 174.315 90.408C174.145 90.3973 174.001 90.3813 173.883 90.36V88.472C174.097 88.5147 174.353 88.536 174.651 88.536C175.451 88.536 176.006 88.1573 176.315 87.4L176.443 87.08L173.195 78.664H175.611L177.691 84.344L180.043 78.664H182.411L178.571 87.672C178.283 88.344 177.969 88.8827 177.627 89.288C177.286 89.6933 176.891 89.9867 176.443 90.168C176.006 90.3493 175.483 90.44 174.875 90.44ZM185.715 87.144C185.118 87.144 184.59 87.0373 184.131 86.824C183.673 86.6 183.315 86.296 183.059 85.912C182.803 85.528 182.675 85.0853 182.675 84.584C182.675 83.784 182.974 83.1653 183.571 82.728C184.179 82.28 185.011 82.056 186.067 82.056C186.793 82.056 187.475 82.168 188.115 82.392V81.784C188.115 81.304 187.966 80.9413 187.667 80.696C187.369 80.4507 186.931 80.328 186.355 80.328C186.003 80.328 185.625 80.3867 185.219 80.504C184.814 80.6107 184.345 80.7813 183.811 81.016L183.011 79.4C183.673 79.1013 184.302 78.8773 184.899 78.728C185.507 78.5787 186.115 78.504 186.723 78.504C187.843 78.504 188.713 78.776 189.331 79.32C189.961 79.8533 190.275 80.6107 190.275 81.592V87H188.115V86.408C187.774 86.664 187.406 86.8507 187.011 86.968C186.617 87.0853 186.185 87.144 185.715 87.144ZM184.755 84.536C184.755 84.856 184.894 85.112 185.171 85.304C185.449 85.4853 185.817 85.576 186.275 85.576C186.638 85.576 186.974 85.5333 187.283 85.448C187.593 85.352 187.87 85.2133 188.115 85.032V83.816C187.849 83.7093 187.571 83.6293 187.283 83.576C186.995 83.5227 186.686 83.496 186.355 83.496C185.854 83.496 185.459 83.592 185.171 83.784C184.894 83.9653 184.755 84.216 184.755 84.536ZM198.353 87V77.848H194.577V75.8H204.433V77.848H200.673V87H198.353ZM204.903 87V78.664H207.095V87H204.903ZM208.809 87V75.8L211.001 75.432V82.168L214.601 78.664H217.081L213.145 82.488L217.321 87H214.521L211.001 83.192V87H208.809ZM217.903 87V75.8L220.095 75.432V87H217.903ZM224.465 87.144C223.868 87.144 223.34 87.0373 222.881 86.824C222.423 86.6 222.065 86.296 221.809 85.912C221.553 85.528 221.425 85.0853 221.425 84.584C221.425 83.784 221.724 83.1653 222.321 82.728C222.929 82.28 223.761 82.056 224.817 82.056C225.543 82.056 226.225 82.168 226.865 82.392V81.784C226.865 81.304 226.716 80.9413 226.417 80.696C226.119 80.4507 225.681 80.328 225.105 80.328C224.753 80.328 224.375 80.3867 223.969 80.504C223.564 80.6107 223.095 80.7813 222.561 81.016L221.761 79.4C222.423 79.1013 223.052 78.8773 223.649 78.728C224.257 78.5787 224.865 78.504 225.473 78.504C226.593 78.504 227.463 78.776 228.081 79.32C228.711 79.8533 229.025 80.6107 229.025 81.592V87H226.865V86.408C226.524 86.664 226.156 86.8507 225.761 86.968C225.367 87.0853 224.935 87.144 224.465 87.144ZM223.505 84.536C223.505 84.856 223.644 85.112 223.921 85.304C224.199 85.4853 224.567 85.576 225.025 85.576C225.388 85.576 225.724 85.5333 226.033 85.448C226.343 85.352 226.62 85.2133 226.865 85.032V83.816C226.599 83.7093 226.321 83.6293 226.033 83.576C225.745 83.5227 225.436 83.496 225.105 83.496C224.604 83.496 224.209 83.592 223.921 83.784C223.644 83.9653 223.505 84.216 223.505 84.536ZM231.344 90.44C231.152 90.44 230.965 90.4293 230.784 90.408C230.613 90.3973 230.469 90.3813 230.352 90.36V88.472C230.565 88.5147 230.821 88.536 231.12 88.536C231.92 88.536 232.475 88.1573 232.784 87.4L232.912 87.08L229.664 78.664H232.08L234.16 84.344L236.512 78.664H238.88L235.04 87.672C234.752 88.344 234.437 88.8827 234.096 89.288C233.755 89.6933 233.36 89.9867 232.912 90.168C232.475 90.3493 231.952 90.44 231.344 90.44ZM242.184 87.144C241.587 87.144 241.059 87.0373 240.6 86.824C240.141 86.6 239.784 86.296 239.528 85.912C239.272 85.528 239.144 85.0853 239.144 84.584C239.144 83.784 239.443 83.1653 240.04 82.728C240.648 82.28 241.48 82.056 242.536 82.056C243.261 82.056 243.944 82.168 244.584 82.392V81.784C244.584 81.304 244.435 80.9413 244.136 80.696C243.837 80.4507 243.4 80.328 242.824 80.328C242.472 80.328 242.093 80.3867 241.688 80.504C241.283 80.6107 240.813 80.7813 240.28 81.016L239.48 79.4C240.141 79.1013 240.771 78.8773 241.368 78.728C241.976 78.5787 242.584 78.504 243.192 78.504C244.312 78.504 245.181 78.776 245.8 79.32C246.429 79.8533 246.744 80.6107 246.744 81.592V87H244.584V86.408C244.243 86.664 243.875 86.8507 243.48 86.968C243.085 87.0853 242.653 87.144 242.184 87.144ZM241.224 84.536C241.224 84.856 241.363 85.112 241.64 85.304C241.917 85.4853 242.285 85.576 242.744 85.576C243.107 85.576 243.443 85.5333 243.752 85.448C244.061 85.352 244.339 85.2133 244.584 85.032V83.816C244.317 83.7093 244.04 83.6293 243.752 83.576C243.464 83.5227 243.155 83.496 242.824 83.496C242.323 83.496 241.928 83.592 241.64 83.784C241.363 83.9653 241.224 84.216 241.224 84.536ZM248.403 87V78.664H250.595V79.592C250.862 79.2293 251.182 78.952 251.555 78.76C251.928 78.568 252.35 78.472 252.819 78.472C253.224 78.4827 253.528 78.5467 253.731 78.664V80.584C253.571 80.5093 253.395 80.456 253.203 80.424C253.011 80.3813 252.814 80.36 252.611 80.36C252.184 80.36 251.795 80.4667 251.443 80.68C251.091 80.8933 250.808 81.1973 250.595 81.592V87H248.403ZM257.356 87.144C256.759 87.144 256.231 87.0373 255.772 86.824C255.313 86.6 254.956 86.296 254.7 85.912C254.444 85.528 254.316 85.0853 254.316 84.584C254.316 83.784 254.615 83.1653 255.212 82.728C255.82 82.28 256.652 82.056 257.708 82.056C258.433 82.056 259.116 82.168 259.756 82.392V81.784C259.756 81.304 259.607 80.9413 259.308 80.696C259.009 80.4507 258.572 80.328 257.996 80.328C257.644 80.328 257.265 80.3867 256.86 80.504C256.455 80.6107 255.985 80.7813 255.452 81.016L254.652 79.4C255.313 79.1013 255.943 78.8773 256.54 78.728C257.148 78.5787 257.756 78.504 258.364 78.504C259.484 78.504 260.353 78.776 260.972 79.32C261.601 79.8533 261.916 80.6107 261.916 81.592V87H259.756V86.408C259.415 86.664 259.047 86.8507 258.652 86.968C258.257 87.0853 257.825 87.144 257.356 87.144ZM256.396 84.536C256.396 84.856 256.535 85.112 256.812 85.304C257.089 85.4853 257.457 85.576 257.916 85.576C258.279 85.576 258.615 85.5333 258.924 85.448C259.233 85.352 259.511 85.2133 259.756 85.032V83.816C259.489 83.7093 259.212 83.6293 258.924 83.576C258.636 83.5227 258.327 83.496 257.996 83.496C257.495 83.496 257.1 83.592 256.812 83.784C256.535 83.9653 256.396 84.216 256.396 84.536ZM263.575 87V75.8L265.767 75.432V82.168L269.367 78.664H271.847L267.911 82.488L272.087 87H269.287L265.767 83.192V87H263.575ZM276.031 87V75.8H284.639V77.816H278.351V80.376H282.495V82.328H278.351V84.984H284.703V87H276.031ZM286.2 87V75.8L288.392 75.432V82.168L291.992 78.664H294.472L290.536 82.488L294.712 87H291.912L288.392 83.192V87H286.2ZM295.294 87V75.8L297.486 75.432V87H295.294ZM303.28 87.16C302.448 87.16 301.691 86.968 301.008 86.584C300.336 86.2 299.803 85.6827 299.408 85.032C299.013 84.3813 298.816 83.6507 298.816 82.84C298.816 82.0293 299.003 81.2987 299.376 80.648C299.76 79.9973 300.277 79.48 300.928 79.096C301.579 78.712 302.304 78.52 303.104 78.52C303.904 78.52 304.613 78.7173 305.232 79.112C305.851 79.5067 306.336 80.04 306.688 80.712C307.051 81.384 307.232 82.1467 307.232 83V83.576H301.056C301.152 83.9067 301.307 84.2053 301.52 84.472C301.744 84.7387 302.016 84.9467 302.336 85.096C302.667 85.2453 303.019 85.32 303.392 85.32C303.765 85.32 304.107 85.2613 304.416 85.144C304.736 85.0267 305.008 84.8613 305.232 84.648L306.672 85.96C306.16 86.376 305.632 86.68 305.088 86.872C304.555 87.064 303.952 87.16 303.28 87.16ZM301.024 82.008H305.072C304.997 81.6773 304.859 81.3893 304.656 81.144C304.464 80.888 304.229 80.6907 303.952 80.552C303.685 80.4027 303.387 80.328 303.056 80.328C302.715 80.328 302.405 80.3973 302.128 80.536C301.851 80.6747 301.616 80.872 301.424 81.128C301.243 81.3733 301.109 81.6667 301.024 82.008Z" fill="#1C4DA1"/>
<path d="M78.564 120L76.188 111.504H77.396L79.644 119.4H79.396L80.884 111.504H82.3L80.468 120H78.564ZM72.82 120L70.972 111.504H72.388L73.892 119.4H73.644L75.868 111.504H77.076L74.732 120H72.82ZM87.873 120.152C87.0197 120.152 86.265 119.963 85.609 119.584C84.9583 119.2 84.4463 118.677 84.073 118.016C83.705 117.349 83.521 116.592 83.521 115.744C83.521 114.896 83.705 114.144 84.073 113.488C84.4463 112.832 84.9583 112.317 85.609 111.944C86.265 111.571 87.0197 111.384 87.873 111.384C88.7263 111.384 89.4783 111.571 90.129 111.944C90.785 112.317 91.297 112.832 91.665 113.488C92.0383 114.144 92.225 114.896 92.225 115.744C92.225 116.592 92.0383 117.349 91.665 118.016C91.297 118.677 90.785 119.2 90.129 119.584C89.4783 119.963 88.7263 120.152 87.873 120.152ZM87.873 118.904C88.4597 118.904 88.977 118.773 89.425 118.512C89.873 118.251 90.2223 117.883 90.473 117.408C90.729 116.933 90.857 116.379 90.857 115.744C90.857 115.109 90.729 114.56 90.473 114.096C90.2223 113.627 89.873 113.267 89.425 113.016C88.977 112.76 88.4597 112.632 87.873 112.632C87.2917 112.632 86.7743 112.76 86.321 113.016C85.873 113.267 85.521 113.627 85.265 114.096C85.0143 114.56 84.889 115.109 84.889 115.744C84.889 116.379 85.0143 116.933 85.265 117.408C85.521 117.883 85.873 118.251 86.321 118.512C86.7743 118.773 87.2917 118.904 87.873 118.904ZM94.349 120V111.504H95.709V114.112L95.261 113.952C95.293 113.637 95.373 113.328 95.501 113.024C95.629 112.715 95.805 112.437 96.029 112.192C96.2583 111.941 96.5437 111.744 96.885 111.6C97.2263 111.451 97.6263 111.376 98.085 111.376C98.4263 111.376 98.7037 111.405 98.917 111.464C99.1357 111.517 99.2717 111.56 99.325 111.592L98.973 112.928C98.9197 112.891 98.8103 112.843 98.645 112.784C98.485 112.725 98.2557 112.696 97.957 112.696C97.5143 112.696 97.1463 112.776 96.853 112.936C96.565 113.096 96.3357 113.309 96.165 113.576C95.9997 113.837 95.8823 114.123 95.813 114.432C95.7437 114.741 95.709 115.048 95.709 115.352V120H94.349ZM104.134 120.16C103.436 120.16 102.796 119.992 102.214 119.656C101.633 119.315 101.169 118.816 100.822 118.16C100.476 117.499 100.302 116.693 100.302 115.744C100.302 114.811 100.478 114.019 100.83 113.368C101.182 112.717 101.649 112.224 102.23 111.888C102.812 111.547 103.446 111.376 104.134 111.376C104.79 111.376 105.404 111.533 105.974 111.848C106.55 112.157 107.014 112.589 107.366 113.144C107.718 113.699 107.894 114.341 107.894 115.072C107.894 115.088 107.894 115.104 107.894 115.12C107.894 115.136 107.894 115.152 107.894 115.168L106.918 115.208C106.918 115.192 106.918 115.176 106.918 115.16C106.918 115.139 106.918 115.12 106.918 115.104C106.918 114.64 106.796 114.221 106.55 113.848C106.31 113.475 105.993 113.179 105.598 112.96C105.204 112.736 104.78 112.624 104.326 112.624C103.569 112.624 102.942 112.88 102.446 113.392C101.95 113.899 101.702 114.683 101.702 115.744C101.702 116.8 101.95 117.587 102.446 118.104C102.948 118.616 103.574 118.872 104.326 118.872C104.801 118.872 105.233 118.757 105.622 118.528C106.017 118.299 106.332 117.992 106.566 117.608C106.801 117.219 106.918 116.784 106.918 116.304L107.894 116.328C107.894 117.053 107.726 117.707 107.39 118.288C107.054 118.864 106.601 119.32 106.03 119.656C105.465 119.992 104.833 120.16 104.134 120.16ZM106.918 120V107.496H108.286V120H106.918ZM121.469 111.504L118.621 120H116.837L113.925 111.504H115.333L117.837 119.28H117.621L120.061 111.504H121.469ZM123.133 116.296V115.08H129.701L129.461 115.48C129.461 115.448 129.461 115.419 129.461 115.392C129.461 115.36 129.461 115.331 129.461 115.304C129.461 114.813 129.357 114.365 129.149 113.96C128.946 113.549 128.642 113.221 128.237 112.976C127.831 112.731 127.33 112.608 126.733 112.608C126.13 112.608 125.599 112.736 125.141 112.992C124.682 113.248 124.325 113.611 124.069 114.08C123.813 114.544 123.685 115.099 123.685 115.744C123.685 116.4 123.807 116.965 124.053 117.44C124.303 117.915 124.658 118.28 125.117 118.536C125.575 118.792 126.119 118.92 126.749 118.92C127.197 118.92 127.586 118.875 127.917 118.784C128.247 118.688 128.519 118.563 128.733 118.408C128.951 118.248 129.117 118.075 129.229 117.888C129.341 117.701 129.407 117.515 129.429 117.328H130.789C130.762 117.669 130.655 118.008 130.469 118.344C130.282 118.68 130.018 118.987 129.677 119.264C129.335 119.536 128.917 119.755 128.421 119.92C127.925 120.085 127.354 120.168 126.709 120.168C125.855 120.168 125.103 119.981 124.453 119.608C123.802 119.235 123.29 118.717 122.917 118.056C122.549 117.395 122.365 116.635 122.365 115.776C122.365 114.907 122.551 114.144 122.925 113.488C123.298 112.827 123.813 112.309 124.469 111.936C125.125 111.563 125.874 111.376 126.717 111.376C127.575 111.376 128.319 111.563 128.949 111.936C129.578 112.309 130.063 112.821 130.405 113.472C130.746 114.117 130.917 114.853 130.917 115.68C130.917 115.765 130.914 115.877 130.909 116.016C130.903 116.155 130.895 116.248 130.885 116.296H123.133ZM132.777 123.584C132.564 123.584 132.369 123.571 132.193 123.544C132.017 123.523 131.908 123.501 131.865 123.48V122.296C131.934 122.328 132.049 122.355 132.209 122.376C132.369 122.397 132.529 122.408 132.689 122.408C133.03 122.408 133.318 122.336 133.553 122.192C133.788 122.053 133.985 121.861 134.145 121.616C134.305 121.376 134.436 121.104 134.537 120.8L134.793 120.048L131.865 111.504H133.289L135.641 118.824H135.449L137.753 111.504H139.153L136.041 120.728C135.865 121.245 135.652 121.72 135.401 122.152C135.156 122.584 134.825 122.931 134.409 123.192C133.998 123.453 133.454 123.584 132.777 123.584ZM143.333 120.16C142.687 120.16 142.122 120.059 141.637 119.856C141.157 119.653 140.783 119.363 140.517 118.984C140.25 118.6 140.117 118.141 140.117 117.608C140.117 117.053 140.261 116.592 140.549 116.224C140.837 115.851 141.242 115.56 141.765 115.352C142.287 115.144 142.895 115.005 143.589 114.936C144.634 114.829 145.378 114.725 145.821 114.624C146.263 114.517 146.485 114.347 146.485 114.112C146.485 114.107 146.485 114.104 146.485 114.104C146.485 114.099 146.485 114.093 146.485 114.088C146.485 113.597 146.285 113.232 145.885 112.992C145.485 112.747 144.906 112.624 144.149 112.624C143.359 112.624 142.746 112.763 142.309 113.04C141.871 113.312 141.653 113.755 141.653 114.368H140.309C140.309 113.733 140.471 113.195 140.797 112.752C141.122 112.304 141.573 111.963 142.149 111.728C142.73 111.493 143.399 111.376 144.157 111.376C144.85 111.376 145.474 111.483 146.029 111.696C146.589 111.904 147.031 112.216 147.357 112.632C147.687 113.043 147.853 113.552 147.853 114.16C147.853 114.272 147.853 114.384 147.853 114.496C147.853 114.603 147.853 114.712 147.853 114.824V118.4C147.853 118.587 147.861 118.768 147.877 118.944C147.893 119.12 147.919 119.275 147.957 119.408C148.005 119.568 148.058 119.699 148.117 119.8C148.175 119.896 148.223 119.963 148.261 120H146.893C146.866 119.973 146.826 119.912 146.773 119.816C146.719 119.715 146.669 119.597 146.621 119.464C146.583 119.357 146.554 119.224 146.533 119.064C146.511 118.899 146.501 118.728 146.501 118.552L146.725 118.704C146.559 118.992 146.317 119.245 145.997 119.464C145.682 119.683 145.301 119.853 144.853 119.976C144.405 120.099 143.898 120.16 143.333 120.16ZM143.549 118.936C144.098 118.936 144.594 118.853 145.037 118.688C145.479 118.517 145.831 118.267 146.093 117.936C146.354 117.605 146.485 117.195 146.485 116.704V115.016L146.789 115.528C146.447 115.661 146.021 115.771 145.509 115.856C145.002 115.936 144.471 116.003 143.917 116.056C143.111 116.131 142.503 116.272 142.093 116.48C141.687 116.688 141.485 117.037 141.485 117.528C141.485 117.992 141.653 118.344 141.989 118.584C142.325 118.819 142.845 118.936 143.549 118.936ZM154.115 123.496V111.504H155.475V123.496H154.115ZM158.267 120.16C157.611 120.16 156.997 120 156.427 119.68C155.856 119.355 155.392 118.909 155.035 118.344C154.683 117.779 154.507 117.133 154.507 116.408C154.507 116.392 154.507 116.379 154.507 116.368C154.507 116.357 154.507 116.344 154.507 116.328L155.483 116.304C155.483 116.315 155.483 116.328 155.483 116.344C155.483 116.355 155.483 116.365 155.483 116.376C155.483 116.835 155.603 117.253 155.843 117.632C156.088 118.011 156.408 118.312 156.803 118.536C157.197 118.76 157.621 118.872 158.075 118.872C158.827 118.872 159.451 118.616 159.947 118.104C160.448 117.587 160.699 116.8 160.699 115.744C160.699 114.683 160.451 113.899 159.955 113.392C159.459 112.88 158.832 112.624 158.075 112.624C157.621 112.624 157.197 112.736 156.803 112.96C156.408 113.179 156.088 113.475 155.843 113.848C155.603 114.221 155.483 114.64 155.483 115.104L154.507 115.072C154.507 114.341 154.683 113.699 155.035 113.144C155.392 112.589 155.856 112.157 156.427 111.848C156.997 111.533 157.611 111.376 158.267 111.376C158.955 111.376 159.589 111.547 160.171 111.888C160.752 112.224 161.219 112.717 161.571 113.368C161.923 114.019 162.099 114.811 162.099 115.744C162.099 116.693 161.925 117.499 161.579 118.16C161.232 118.816 160.768 119.315 160.187 119.656C159.605 119.992 158.965 120.16 158.267 120.16ZM167.728 120.16C167.029 120.16 166.389 119.992 165.808 119.656C165.227 119.315 164.763 118.816 164.416 118.16C164.069 117.499 163.896 116.693 163.896 115.744C163.896 114.811 164.072 114.019 164.424 113.368C164.776 112.717 165.243 112.224 165.824 111.888C166.405 111.547 167.04 111.376 167.728 111.376C168.384 111.376 168.997 111.533 169.568 111.848C170.144 112.157 170.608 112.589 170.96 113.144C171.312 113.699 171.488 114.341 171.488 115.072C171.488 115.088 171.488 115.104 171.488 115.12C171.488 115.136 171.488 115.152 171.488 115.168L170.512 115.208C170.512 115.192 170.512 115.176 170.512 115.16C170.512 115.139 170.512 115.12 170.512 115.104C170.512 114.64 170.389 114.221 170.144 113.848C169.904 113.475 169.587 113.179 169.192 112.96C168.797 112.736 168.373 112.624 167.92 112.624C167.163 112.624 166.536 112.88 166.04 113.392C165.544 113.899 165.296 114.683 165.296 115.744C165.296 116.8 165.544 117.587 166.04 118.104C166.541 118.616 167.168 118.872 167.92 118.872C168.395 118.872 168.827 118.757 169.216 118.528C169.611 118.299 169.925 117.992 170.16 117.608C170.395 117.219 170.512 116.784 170.512 116.304L171.488 116.328C171.488 117.053 171.32 117.707 170.984 118.288C170.648 118.864 170.195 119.32 169.624 119.656C169.059 119.992 168.427 120.16 167.728 120.16ZM170.512 120V107.496H171.88V120H170.512ZM175.319 120V112.704H173.463V111.504H175.319V110.408C175.319 110.029 175.362 109.683 175.447 109.368C175.538 109.048 175.666 108.765 175.831 108.52C176.002 108.275 176.207 108.067 176.447 107.896C176.687 107.725 176.959 107.597 177.263 107.512C177.572 107.421 177.908 107.376 178.271 107.376C178.532 107.376 178.74 107.392 178.895 107.424C179.05 107.456 179.154 107.485 179.207 107.512V108.712C179.143 108.691 179.036 108.667 178.887 108.64C178.738 108.613 178.578 108.6 178.407 108.6C178.044 108.6 177.748 108.656 177.519 108.768C177.295 108.88 177.122 109.035 176.999 109.232C176.876 109.424 176.791 109.643 176.743 109.888C176.7 110.133 176.679 110.389 176.679 110.656V111.504H179.159V112.704H176.679V120H175.319ZM188.244 120.16C187.545 120.16 186.905 119.992 186.324 119.656C185.742 119.315 185.278 118.816 184.932 118.16C184.585 117.499 184.412 116.693 184.412 115.744C184.412 114.811 184.588 114.019 184.94 113.368C185.292 112.717 185.758 112.224 186.34 111.888C186.921 111.547 187.556 111.376 188.244 111.376C188.9 111.376 189.513 111.533 190.084 111.848C190.66 112.157 191.124 112.589 191.476 113.144C191.828 113.699 192.004 114.341 192.004 115.072C192.004 115.088 192.004 115.104 192.004 115.12C192.004 115.136 192.004 115.152 192.004 115.168L191.028 115.208C191.028 115.192 191.028 115.176 191.028 115.16C191.028 115.139 191.028 115.12 191.028 115.104C191.028 114.64 190.905 114.221 190.66 113.848C190.42 113.475 190.102 113.179 189.708 112.96C189.313 112.736 188.889 112.624 188.436 112.624C187.678 112.624 187.052 112.88 186.556 113.392C186.06 113.899 185.812 114.683 185.812 115.744C185.812 116.8 186.06 117.587 186.556 118.104C187.057 118.616 187.684 118.872 188.436 118.872C188.91 118.872 189.342 118.757 189.732 118.528C190.126 118.299 190.441 117.992 190.676 117.608C190.91 117.219 191.028 116.784 191.028 116.304L192.004 116.328C192.004 117.053 191.836 117.707 191.5 118.288C191.164 118.864 190.71 119.32 190.14 119.656C189.574 119.992 188.942 120.16 188.244 120.16ZM191.028 120V107.496H192.396V120H191.028ZM198.811 120.152C197.957 120.152 197.203 119.963 196.547 119.584C195.896 119.2 195.384 118.677 195.011 118.016C194.643 117.349 194.459 116.592 194.459 115.744C194.459 114.896 194.643 114.144 195.011 113.488C195.384 112.832 195.896 112.317 196.547 111.944C197.203 111.571 197.957 111.384 198.811 111.384C199.664 111.384 200.416 111.571 201.067 111.944C201.723 112.317 202.235 112.832 202.602 113.488C202.976 114.144 203.163 114.896 203.163 115.744C203.163 116.592 202.976 117.349 202.602 118.016C202.235 118.677 201.723 119.2 201.067 119.584C200.416 119.963 199.664 120.152 198.811 120.152ZM198.811 118.904C199.397 118.904 199.915 118.773 200.363 118.512C200.811 118.251 201.16 117.883 201.411 117.408C201.667 116.933 201.795 116.379 201.795 115.744C201.795 115.109 201.667 114.56 201.411 114.096C201.16 113.627 200.811 113.267 200.363 113.016C199.915 112.76 199.397 112.632 198.811 112.632C198.229 112.632 197.712 112.76 197.259 113.016C196.811 113.267 196.459 113.627 196.203 114.096C195.952 114.56 195.827 115.109 195.827 115.744C195.827 116.379 195.952 116.933 196.203 117.408C196.459 117.883 196.811 118.251 197.259 118.512C197.712 118.773 198.229 118.904 198.811 118.904ZM197.259 109.568C197.029 109.568 196.827 109.501 196.651 109.368C196.48 109.235 196.395 109.053 196.395 108.824C196.395 108.6 196.48 108.421 196.651 108.288C196.827 108.155 197.029 108.088 197.259 108.088C197.493 108.088 197.696 108.155 197.867 108.288C198.037 108.421 198.123 108.6 198.123 108.824C198.123 109.053 198.037 109.235 197.867 109.368C197.696 109.501 197.493 109.568 197.259 109.568ZM200.371 109.568C200.141 109.568 199.941 109.501 199.771 109.368C199.6 109.235 199.515 109.053 199.515 108.824C199.515 108.6 199.6 108.421 199.771 108.288C199.941 108.155 200.141 108.088 200.371 108.088C200.605 108.088 200.808 108.155 200.979 108.288C201.149 108.421 201.235 108.6 201.235 108.824C201.235 109.053 201.149 109.235 200.979 109.368C200.808 109.501 200.605 109.568 200.371 109.568ZM205.287 120V107.496H206.583V115.16L206.191 114.984L210.255 111.504H212.015L207.943 115.088L208.303 114.392L212.047 120H210.583L207.423 115.144L207.703 115.304L206.383 116.448L206.583 115.8V120H205.287ZM216.407 120.152C215.799 120.152 215.292 120.048 214.887 119.84C214.482 119.627 214.159 119.352 213.919 119.016C213.684 118.68 213.516 118.317 213.415 117.928C213.319 117.533 213.271 117.155 213.271 116.792C213.271 116.589 213.271 116.381 213.271 116.168C213.271 115.949 213.271 115.731 213.271 115.512V111.504H214.639V115.336C214.639 115.533 214.639 115.728 214.639 115.92C214.639 116.112 214.639 116.293 214.639 116.464C214.639 116.896 214.698 117.296 214.815 117.664C214.938 118.032 215.148 118.331 215.447 118.56C215.746 118.784 216.156 118.896 216.679 118.896C217.17 118.896 217.599 118.749 217.967 118.456C218.335 118.157 218.623 117.787 218.831 117.344C219.039 116.896 219.143 116.451 219.143 116.008L219.935 116.336C219.935 116.805 219.852 117.267 219.687 117.72C219.522 118.168 219.284 118.576 218.975 118.944C218.671 119.312 218.3 119.605 217.863 119.824C217.431 120.043 216.946 120.152 216.407 120.152ZM219.143 120V111.504H220.503V120H219.143ZM215.167 109.568C214.938 109.568 214.735 109.501 214.559 109.368C214.388 109.235 214.303 109.053 214.303 108.824C214.303 108.6 214.388 108.421 214.559 108.288C214.735 108.155 214.938 108.088 215.167 108.088C215.402 108.088 215.604 108.155 215.775 108.288C215.946 108.421 216.031 108.6 216.031 108.824C216.031 109.053 215.946 109.235 215.775 109.368C215.604 109.501 215.402 109.568 215.167 109.568ZM218.279 109.568C218.05 109.568 217.85 109.501 217.679 109.368C217.508 109.235 217.423 109.053 217.423 108.824C217.423 108.6 217.508 108.421 217.679 108.288C217.85 108.155 218.05 108.088 218.279 108.088C218.514 108.088 218.716 108.155 218.887 108.288C219.058 108.421 219.143 108.6 219.143 108.824C219.143 109.053 219.058 109.235 218.887 109.368C218.716 109.501 218.514 109.568 218.279 109.568ZM228.089 120V116.248C228.089 115.917 228.089 115.632 228.089 115.392C228.089 115.147 228.089 114.941 228.089 114.776C228.089 114.568 228.073 114.344 228.041 114.104C228.014 113.859 227.947 113.629 227.841 113.416C227.734 113.197 227.566 113.019 227.337 112.88C227.113 112.741 226.801 112.672 226.401 112.672C225.995 112.672 225.654 112.752 225.377 112.912C225.099 113.067 224.875 113.272 224.705 113.528C224.534 113.784 224.411 114.067 224.337 114.376C224.262 114.68 224.225 114.981 224.225 115.28L223.457 114.968C223.457 114.328 223.59 113.736 223.857 113.192C224.123 112.648 224.497 112.211 224.977 111.88C225.462 111.544 226.03 111.376 226.681 111.376C227.326 111.376 227.851 111.507 228.257 111.768C228.662 112.029 228.961 112.389 229.153 112.848C229.345 113.307 229.441 113.835 229.441 114.432C229.441 114.645 229.441 114.92 229.441 115.256C229.441 115.587 229.441 115.965 229.441 116.392V120H228.089ZM222.865 120V111.504H224.225V120H222.865ZM233.297 120V116.248C233.297 115.885 233.297 115.587 233.297 115.352C233.297 115.112 233.297 114.909 233.297 114.744C233.297 114.536 233.283 114.312 233.257 114.072C233.23 113.832 233.163 113.608 233.057 113.4C232.95 113.187 232.779 113.013 232.545 112.88C232.315 112.741 231.993 112.672 231.577 112.672C231.166 112.672 230.822 112.749 230.545 112.904C230.273 113.059 230.054 113.261 229.889 113.512C229.729 113.763 229.614 114.035 229.545 114.328C229.475 114.616 229.441 114.893 229.441 115.16L228.673 114.864C228.673 114.256 228.801 113.688 229.057 113.16C229.318 112.627 229.686 112.197 230.161 111.872C230.641 111.541 231.209 111.376 231.865 111.376C232.478 111.376 232.99 111.496 233.401 111.736C233.817 111.976 234.129 112.315 234.337 112.752C234.55 113.184 234.657 113.699 234.657 114.296C234.657 114.52 234.657 114.797 234.657 115.128C234.657 115.459 234.657 115.832 234.657 116.248V120H233.297ZM239.989 120.16C239.344 120.16 238.778 120.059 238.293 119.856C237.813 119.653 237.44 119.363 237.173 118.984C236.906 118.6 236.773 118.141 236.773 117.608C236.773 117.053 236.917 116.592 237.205 116.224C237.493 115.851 237.898 115.56 238.421 115.352C238.944 115.144 239.552 115.005 240.245 114.936C241.29 114.829 242.034 114.725 242.477 114.624C242.92 114.517 243.141 114.347 243.141 114.112C243.141 114.107 243.141 114.104 243.141 114.104C243.141 114.099 243.141 114.093 243.141 114.088C243.141 113.597 242.941 113.232 242.541 112.992C242.141 112.747 241.562 112.624 240.805 112.624C240.016 112.624 239.402 112.763 238.965 113.04C238.528 113.312 238.309 113.755 238.309 114.368H236.965C236.965 113.733 237.128 113.195 237.453 112.752C237.778 112.304 238.229 111.963 238.805 111.728C239.386 111.493 240.056 111.376 240.813 111.376C241.506 111.376 242.13 111.483 242.685 111.696C243.245 111.904 243.688 112.216 244.013 112.632C244.344 113.043 244.509 113.552 244.509 114.16C244.509 114.272 244.509 114.384 244.509 114.496C244.509 114.603 244.509 114.712 244.509 114.824V118.4C244.509 118.587 244.517 118.768 244.533 118.944C244.549 119.12 244.576 119.275 244.613 119.408C244.661 119.568 244.714 119.699 244.773 119.8C244.832 119.896 244.88 119.963 244.917 120H243.549C243.522 119.973 243.482 119.912 243.429 119.816C243.376 119.715 243.325 119.597 243.277 119.464C243.24 119.357 243.21 119.224 243.189 119.064C243.168 118.899 243.157 118.728 243.157 118.552L243.381 118.704C243.216 118.992 242.973 119.245 242.653 119.464C242.338 119.683 241.957 119.853 241.509 119.976C241.061 120.099 240.554 120.16 239.989 120.16ZM240.205 118.936C240.754 118.936 241.25 118.853 241.693 118.688C242.136 118.517 242.488 118.267 242.749 117.936C243.01 117.605 243.141 117.195 243.141 116.704V115.016L243.445 115.528C243.104 115.661 242.677 115.771 242.165 115.856C241.658 115.936 241.128 116.003 240.573 116.056C239.768 116.131 239.16 116.272 238.749 116.48C238.344 116.688 238.141 117.037 238.141 117.528C238.141 117.992 238.309 118.344 238.645 118.584C238.981 118.819 239.501 118.936 240.205 118.936ZM252.851 120V115.928C252.851 115.683 252.851 115.483 252.851 115.328C252.851 115.168 252.851 115.016 252.851 114.872C252.851 114.429 252.776 114.043 252.627 113.712C252.478 113.381 252.243 113.125 251.923 112.944C251.603 112.763 251.184 112.672 250.667 112.672C250.214 112.672 249.792 112.789 249.403 113.024C249.019 113.253 248.71 113.565 248.475 113.96C248.246 114.349 248.131 114.787 248.131 115.272L247.355 114.976C247.355 114.309 247.518 113.704 247.843 113.16C248.174 112.616 248.611 112.184 249.155 111.864C249.704 111.539 250.302 111.376 250.947 111.376C251.603 111.376 252.176 111.501 252.667 111.752C253.158 112.003 253.536 112.363 253.803 112.832C254.075 113.296 254.211 113.856 254.211 114.512C254.211 114.747 254.211 115.003 254.211 115.28C254.211 115.557 254.211 115.816 254.211 116.056V120H252.851ZM246.771 120V111.504H248.131V120H246.771ZM258.047 107.496V120H256.703V107.496H258.047ZM263.505 120.16C262.859 120.16 262.294 120.059 261.809 119.856C261.329 119.653 260.955 119.363 260.689 118.984C260.422 118.6 260.289 118.141 260.289 117.608C260.289 117.053 260.433 116.592 260.721 116.224C261.009 115.851 261.414 115.56 261.937 115.352C262.459 115.144 263.067 115.005 263.761 114.936C264.806 114.829 265.55 114.725 265.993 114.624C266.435 114.517 266.657 114.347 266.657 114.112C266.657 114.107 266.657 114.104 266.657 114.104C266.657 114.099 266.657 114.093 266.657 114.088C266.657 113.597 266.457 113.232 266.057 112.992C265.657 112.747 265.078 112.624 264.321 112.624C263.531 112.624 262.918 112.763 262.481 113.04C262.043 113.312 261.825 113.755 261.825 114.368H260.481C260.481 113.733 260.643 113.195 260.969 112.752C261.294 112.304 261.745 111.963 262.321 111.728C262.902 111.493 263.571 111.376 264.329 111.376C265.022 111.376 265.646 111.483 266.201 111.696C266.761 111.904 267.203 112.216 267.529 112.632C267.859 113.043 268.025 113.552 268.025 114.16C268.025 114.272 268.025 114.384 268.025 114.496C268.025 114.603 268.025 114.712 268.025 114.824V118.4C268.025 118.587 268.033 118.768 268.049 118.944C268.065 119.12 268.091 119.275 268.128 119.408C268.177 119.568 268.23 119.699 268.289 119.8C268.347 119.896 268.395 119.963 268.433 120H267.065C267.038 119.973 266.998 119.912 266.945 119.816C266.891 119.715 266.841 119.597 266.793 119.464C266.755 119.357 266.726 119.224 266.705 119.064C266.683 118.899 266.673 118.728 266.673 118.552L266.897 118.704C266.731 118.992 266.489 119.245 266.169 119.464C265.854 119.683 265.473 119.853 265.025 119.976C264.577 120.099 264.07 120.16 263.505 120.16ZM263.72 118.936C264.27 118.936 264.766 118.853 265.209 118.688C265.651 118.517 266.003 118.267 266.265 117.936C266.526 117.605 266.657 117.195 266.657 116.704V115.016L266.961 115.528C266.619 115.661 266.193 115.771 265.681 115.856C265.174 115.936 264.643 116.003 264.089 116.056C263.283 116.131 262.675 116.272 262.265 116.48C261.859 116.688 261.657 117.037 261.657 117.528C261.657 117.992 261.825 118.344 262.161 118.584C262.497 118.819 263.017 118.936 263.72 118.936ZM270.287 120V111.504H271.647V114.112L271.199 113.952C271.231 113.637 271.311 113.328 271.439 113.024C271.567 112.715 271.743 112.437 271.967 112.192C272.196 111.941 272.481 111.744 272.823 111.6C273.164 111.451 273.564 111.376 274.023 111.376C274.364 111.376 274.641 111.405 274.855 111.464C275.073 111.517 275.209 111.56 275.263 111.592L274.911 112.928C274.857 112.891 274.748 112.843 274.583 112.784C274.423 112.725 274.193 112.696 273.895 112.696C273.452 112.696 273.084 112.776 272.791 112.936C272.503 113.096 272.273 113.309 272.103 113.576C271.937 113.837 271.82 114.123 271.751 114.432C271.681 114.741 271.647 115.048 271.647 115.352V120H270.287ZM276.804 120V111.504H278.148V120H276.804Z" fill="#7C8493"/>
<rect x="1" y="1" width="348" height="151" rx="7" stroke="#1C4DA1" stroke-width="2" stroke-dasharray="12 12"/>
<defs>
<clipPath id="clip0_34_2874">
<rect width="32" height="32" fill="white" transform="translate(159 24)"/>
</clipPath>
</defs>
</svg>
