<svg width="20" height="20" viewBox="0 0 20 20" fill="none" xmlns="http://www.w3.org/2000/svg">
<g clip-path="url(#clip0_325_1457)">
<path fill-rule="evenodd" clip-rule="evenodd" d="M3.23223 5.73223C3.70107 5.26339 4.33696 5 5 5H7.5C7.96024 5 8.33333 5.3731 8.33333 5.83333C8.33333 6.29357 7.96024 6.66667 7.5 6.66667H5C4.77899 6.66667 4.56702 6.75446 4.41074 6.91074C4.25446 7.06702 4.16667 7.27899 4.16667 7.5V15C4.16667 15.221 4.25446 15.433 4.41074 15.5893C4.56702 15.7455 4.77899 15.8333 5 15.8333H12.5C12.721 15.8333 12.933 15.7455 13.0893 15.5893C13.2455 15.433 13.3333 15.221 13.3333 15V12.5C13.3333 12.0398 13.7064 11.6667 14.1667 11.6667C14.6269 11.6667 15 12.0398 15 12.5V15C15 15.663 14.7366 16.2989 14.2678 16.7678C13.7989 17.2366 13.163 17.5 12.5 17.5H5C4.33696 17.5 3.70107 17.2366 3.23223 16.7678C2.76339 16.2989 2.5 15.663 2.5 15V7.5C2.5 6.83696 2.76339 6.20107 3.23223 5.73223Z" fill="#1C4DA1"/>
<path fill-rule="evenodd" clip-rule="evenodd" d="M13.9934 2.3274C14.4812 1.8396 15.1428 1.56555 15.8327 1.56555C16.5225 1.56555 17.1841 1.8396 17.6719 2.3274C18.1597 2.8152 18.4338 3.4768 18.4338 4.16665C18.4338 4.85651 18.1597 5.51811 17.6719 6.00591L10.5886 13.0892C10.4323 13.2455 10.2204 13.3333 9.99935 13.3333H7.49935C7.03911 13.3333 6.66602 12.9602 6.66602 12.5V9.99999C6.66602 9.77897 6.75381 9.56701 6.91009 9.41073L13.9934 2.3274ZM15.8327 3.23222C15.5849 3.23222 15.3472 3.33067 15.1719 3.50591L8.33268 10.3452V11.6667H9.65417L16.4934 4.8274C16.6687 4.65216 16.7671 4.41448 16.7671 4.16665C16.7671 3.91883 16.6687 3.68115 16.4934 3.50591C16.3182 3.33067 16.0805 3.23222 15.8327 3.23222Z" fill="#1C4DA1"/>
<path fill-rule="evenodd" clip-rule="evenodd" d="M12.7441 3.57739C13.0695 3.25195 13.5972 3.25195 13.9226 3.57739L16.4226 6.07739C16.748 6.40283 16.748 6.93047 16.4226 7.2559C16.0972 7.58134 15.5695 7.58134 15.2441 7.2559L12.7441 4.7559C12.4186 4.43047 12.4186 3.90283 12.7441 3.57739Z" fill="#1C4DA1"/>
</g>
<defs>
<clipPath id="clip0_325_1457">
<rect width="20" height="20" fill="white"/>
</clipPath>
</defs>
</svg>
