<svg width="86" height="79" viewBox="0 0 86 79" fill="none" xmlns="http://www.w3.org/2000/svg">
<g clip-path="url(#clip0_34_3516)">
<path d="M71.9024 78.3215H13.3246C5.98348 78.3215 0 72.338 0 64.9969C0 64.2259 0.620137 63.6058 1.39112 63.6058H83.8526C84.6236 63.6058 85.2437 64.2259 85.2437 64.9969C85.2437 72.338 79.2602 78.3215 71.9191 78.3215H71.9024ZM2.86604 66.388C3.55322 71.5503 7.97798 75.556 13.3246 75.556H71.9024C77.249 75.556 81.6737 71.5503 82.3609 66.388H2.86604Z" fill="black"/>
<path d="M81.4894 66.3883H3.7544C2.98342 66.3883 2.36328 65.7681 2.36328 64.9972V20.3976C2.36328 17.7997 4.4751 15.6711 7.08973 15.6711H36.6887C37.4597 15.6711 38.0798 16.2912 38.0798 17.0622C38.0798 17.8332 37.4597 18.4533 36.6887 18.4533H7.07297C6.0003 18.4533 5.12876 19.3249 5.12876 20.3976V63.6228H80.0816V20.3976C80.0816 19.3249 79.21 18.4533 78.1373 18.4533H77.1988C76.4278 18.4533 75.8076 17.8332 75.8076 17.0622C75.8076 16.2912 76.4278 15.6711 77.1988 15.6711H78.1373C80.7352 15.6711 82.8638 17.7829 82.8638 20.3976V64.9972C82.8638 65.7681 82.2437 66.3883 81.4727 66.3883H81.4894Z" fill="black"/>
<path d="M52.0406 25.9956H47.5991C46.8281 25.9956 46.208 25.3754 46.208 24.6044C46.208 23.8335 46.8281 23.2133 47.5991 23.2133H52.0406C52.8116 23.2133 53.4318 23.8335 53.4318 24.6044C53.4318 25.3754 52.8116 25.9956 52.0406 25.9956Z" fill="black"/>
<path d="M73.059 58.9801H12.1682C11.6654 58.9801 11.2129 58.712 10.9615 58.2762C10.7771 57.9578 10.6095 57.6896 10.4586 57.4549C10.0564 56.8348 9.6709 56.2314 9.6709 55.4102V25.6771C9.6709 24.3195 10.7938 23.2133 12.1682 23.2133H16.6935C17.4645 23.2133 18.0847 23.8335 18.0847 24.6044C18.0847 25.3754 17.4645 25.9956 16.6935 25.9956H12.4531V55.4269C12.4531 55.4269 12.6543 55.7286 12.8051 55.9633C12.8554 56.0471 12.9057 56.1309 12.9727 56.2147H72.3047C72.355 56.1309 72.4053 56.0471 72.4724 55.9633C72.6232 55.7454 72.7908 55.4604 72.8243 55.3599V25.9956H68.6342C67.8632 25.9956 67.2431 25.3754 67.2431 24.6044C67.2431 23.8335 67.8632 23.2133 68.6342 23.2133H73.0925C74.4669 23.2133 75.5898 24.3195 75.5898 25.6771V55.4102C75.5898 56.2314 75.2043 56.818 74.8021 57.4549C74.6512 57.6896 74.4836 57.941 74.2992 58.2762C74.0478 58.712 73.5953 58.9801 73.0925 58.9801H73.059Z" fill="black"/>
<path d="M26.7163 50.2479C26.7163 50.2479 26.5655 50.2479 26.4984 50.2311C26.0291 50.1473 25.6269 49.8456 25.4425 49.4098L22.5597 42.7392L17.4981 42.5883C16.7438 42.5716 16.1572 41.9514 16.1572 41.1972V28.1073C16.1572 27.4536 16.6098 26.8838 17.2634 26.7497L41.8343 21.5372C42.2197 21.4534 42.622 21.5372 42.9572 21.7886C43.2757 22.0232 43.4768 22.392 43.5103 22.7942L44.9685 40.0743C45.0355 40.8285 44.4824 41.4989 43.7282 41.5659L34.225 42.5381L27.789 49.7786C27.5208 50.0803 27.1521 50.2479 26.7498 50.2479H26.7163ZM18.9227 39.8564L23.5318 39.9905C24.0682 39.9905 24.5542 40.3257 24.7721 40.8285L27.1353 46.3092L32.4819 40.2922C32.7166 40.024 33.035 39.8731 33.387 39.8396L42.0689 38.9513L40.8621 24.5876L18.9395 29.2302V39.8564H18.9227Z" fill="#3272DF"/>
<path d="M31.5437 34.0739C31.5437 35.1298 30.6889 35.9678 29.6498 35.9678C28.6106 35.9678 27.7559 35.113 27.7559 34.0739C27.7559 33.0347 28.6106 32.1799 29.6498 32.1799C30.6889 32.1799 31.5437 33.0347 31.5437 34.0739Z" fill="black"/>
<path d="M23.9506 37.0407C24.9966 37.0407 25.8445 36.1928 25.8445 35.1468C25.8445 34.1008 24.9966 33.2528 23.9506 33.2528C22.9046 33.2528 22.0566 34.1008 22.0566 35.1468C22.0566 36.1928 22.9046 37.0407 23.9506 37.0407Z" fill="black"/>
<path d="M37.242 32.8839C37.242 33.9398 36.3872 34.7779 35.348 34.7779C34.3089 34.7779 33.4541 33.9231 33.4541 32.8839C33.4541 31.8448 34.3089 30.99 35.348 30.99C36.3872 30.99 37.242 31.8448 37.242 32.8839Z" fill="black"/>
<path d="M61.3267 28.7275C60.9412 28.7275 60.5557 28.5599 60.2875 28.2582L53.8515 21.0177L44.3483 20.0456C43.5941 19.9618 43.041 19.3081 43.108 18.5539L44.5662 1.27386C44.5997 0.871612 44.8009 0.519643 45.1193 0.268236C45.4377 0.0335894 45.84 -0.0669734 46.2423 0.0168289L70.8131 5.22933C71.45 5.36342 71.9193 5.93327 71.9193 6.58693V19.6769C71.9193 20.4311 71.3159 21.0344 70.5784 21.068L65.5168 21.2188L62.634 27.8895C62.4496 28.3253 62.0474 28.6269 61.5781 28.7107C61.511 28.7107 61.4272 28.7275 61.3602 28.7275H61.3267ZM45.9908 17.4309L54.6728 18.3193C55.0247 18.3528 55.3432 18.5204 55.5778 18.7718L60.9244 24.7888L63.2876 19.3081C63.5055 18.8053 63.9748 18.4869 64.5279 18.4701L69.137 18.336V7.70988L47.2144 3.06723L46.0076 17.4309H45.9908Z" fill="#3272DF"/>
<path d="M56.499 12.5537C56.499 13.6096 57.3538 14.4476 58.393 14.4476C59.4321 14.4476 60.2869 13.5928 60.2869 12.5537C60.2869 11.5145 59.4321 10.6598 58.393 10.6598C57.3538 10.6598 56.499 11.5145 56.499 12.5537Z" fill="black"/>
<path d="M62.1982 13.6262C62.1982 14.6821 63.053 15.5201 64.0922 15.5201C65.1313 15.5201 65.9861 14.6653 65.9861 13.6262C65.9861 12.587 65.1313 11.7322 64.0922 11.7322C63.053 11.7322 62.1982 12.587 62.1982 13.6262Z" fill="black"/>
<path d="M50.8008 11.3634C50.8008 12.4193 51.6556 13.2573 52.6947 13.2573C53.7339 13.2573 54.5886 12.4025 54.5886 11.3634C54.5886 10.3242 53.7339 9.46942 52.6947 9.46942C51.6556 9.46942 50.8008 10.3242 50.8008 11.3634Z" fill="black"/>
<path d="M36.4042 54.6893H21.2192C20.4483 54.6893 19.8281 54.0691 19.8281 53.2981C19.8281 52.5272 20.4483 51.907 21.2192 51.907H36.4042C37.1752 51.907 37.7953 52.5272 37.7953 53.2981C37.7953 54.0691 37.1752 54.6893 36.4042 54.6893Z" fill="black"/>
<path d="M66.5721 33.1855H53.2476C52.4766 33.1855 51.8564 32.5653 51.8564 31.7943C51.8564 31.0234 52.4766 30.4032 53.2476 30.4032H66.5721C67.3431 30.4032 67.9632 31.0234 67.9632 31.7943C67.9632 32.5653 67.3431 33.1855 66.5721 33.1855Z" fill="black"/>
<path d="M66.5731 46.4936H45.9409C45.1699 46.4936 44.5498 45.8734 44.5498 45.1025C44.5498 44.3315 45.1699 43.7113 45.9409 43.7113H66.5731C67.344 43.7113 67.9642 44.3315 67.9642 45.1025C67.9642 45.8734 67.344 46.4936 66.5731 46.4936Z" fill="black"/>
<path d="M56.0802 72.3549H29.1294C28.3584 72.3549 27.7383 71.7347 27.7383 70.9638C27.7383 70.1928 28.3584 69.5726 29.1294 69.5726H56.0802C56.8512 69.5726 57.4713 70.1928 57.4713 70.9638C57.4713 71.7347 56.8512 72.3549 56.0802 72.3549Z" fill="black"/>
</g>
<defs>
<clipPath id="clip0_34_3516">
<rect width="85.227" height="78.3216" fill="white"/>
</clipPath>
</defs>
</svg>
