<svg width="87" height="70" viewBox="0 0 87 70" fill="none" xmlns="http://www.w3.org/2000/svg">
<g clip-path="url(#clip0_34_3490)">
<path d="M80.3329 12.2182H6.10081C2.73196 12.2182 0 9.48627 0 6.11742C0 2.74856 2.73196 -0.000152588 6.10081 -0.000152588H80.3161C83.685 -0.000152588 86.4169 2.7318 86.4169 6.10066C86.4169 9.46951 83.685 12.2015 80.3161 12.2015L80.3329 12.2182ZM6.10081 2.78208C4.25716 2.78208 2.76548 4.27377 2.76548 6.11742C2.76548 7.96107 4.25716 9.45275 6.10081 9.45275H80.3161C82.1598 9.45275 83.6515 7.96107 83.6515 6.11742C83.6515 4.27377 82.1598 2.78208 80.3161 2.78208H6.10081Z" fill="black"/>
<path d="M77.1817 60.5219H33.5543C32.7833 60.5219 32.1631 59.9017 32.1631 59.1307C32.1631 58.3598 32.7833 57.7396 33.5543 57.7396H77.1817C78.8578 57.7396 80.2321 56.3653 80.2321 54.6892V12.2182H6.20118V50.1639C6.20118 50.9349 5.58104 51.555 4.81006 51.555C4.03908 51.555 3.41895 50.9349 3.41895 50.1639V10.626C3.41895 10.1902 3.62007 9.77117 3.97204 9.51977C4.32401 9.2516 4.77654 9.1678 5.19555 9.30188C5.54752 9.40244 5.83245 9.45272 6.11738 9.45272H80.3327C80.6009 9.45272 80.8858 9.40244 81.2545 9.30188C81.6735 9.18456 82.1261 9.26836 82.478 9.51977C82.83 9.78793 83.0311 10.1902 83.0311 10.626V54.6892C83.0311 57.9072 80.4165 60.5219 77.1985 60.5219H77.1817Z" fill="black"/>
<path d="M27.0683 52.0077H23.733C22.962 52.0077 22.3419 51.3876 22.3419 50.6166C22.3419 49.8456 22.962 49.2255 23.733 49.2255H25.6772V30.9901H20.582V33.7724C20.582 34.5433 19.9619 35.1635 19.1909 35.1635C18.4199 35.1635 17.7998 34.5433 17.7998 33.7724V29.6158C17.7998 28.8448 18.4199 28.2246 19.1909 28.2246H27.0516C27.8226 28.2246 28.4427 28.8448 28.4427 29.6158V50.6166C28.4427 51.3876 27.8226 52.0077 27.0516 52.0077H27.0683Z" fill="#3272DF"/>
<path d="M40.9461 52.0077H33.0855C32.3145 52.0077 31.6943 51.3876 31.6943 50.6166V24.9898C31.6943 24.2189 32.3145 23.5987 33.0855 23.5987H40.9461C41.7171 23.5987 42.3372 24.2189 42.3372 24.9898V50.6166C42.3372 51.3876 41.7171 52.0077 40.9461 52.0077ZM34.4598 49.2255H39.555V26.3642H34.4598V49.2255Z" fill="#3272DF"/>
<path d="M54.8231 52.0074H46.9624C46.1914 52.0074 45.5713 51.3873 45.5713 50.6163V20.5313C45.5713 19.7603 46.1914 19.1402 46.9624 19.1402H54.8231C55.594 19.1402 56.2142 19.7603 56.2142 20.5313V50.5996C56.2142 51.3705 55.594 51.9907 54.8231 51.9907V52.0074ZM48.3368 49.2252H53.4319V21.9224H48.3368V49.2252Z" fill="#3272DF"/>
<path d="M68.7176 52.0076H60.8569C60.086 52.0076 59.4658 51.3875 59.4658 50.6165V16.928C59.4658 16.157 60.086 15.5368 60.8569 15.5368H68.7176C69.4886 15.5368 70.1087 16.157 70.1087 16.928V50.6165C70.1087 51.3875 69.4886 52.0076 68.7176 52.0076ZM62.2313 49.2254H67.3265V18.3191H62.2313V49.2254Z" fill="#3272DF"/>
<path d="M71.6678 52.0078H23.7329C22.9619 52.0078 22.3418 51.3876 22.3418 50.6167C22.3418 49.8457 22.9619 49.2255 23.7329 49.2255H71.6678C72.4388 49.2255 73.059 49.8457 73.059 50.6167C73.059 51.3876 72.4388 52.0078 71.6678 52.0078Z" fill="black"/>
<path d="M27.32 69.4553H3.30225C2.53127 69.4553 1.91113 68.8352 1.91113 68.0642V61.8461C1.91113 56.9353 5.91688 52.9295 10.8277 52.9295H11.7663C12.5373 52.9295 13.1574 53.5497 13.1574 54.3207C13.1574 55.0916 12.5373 55.7118 11.7663 55.7118H10.8277C7.44209 55.7118 4.69337 58.4605 4.69337 61.8461V66.6731H25.9289V61.8461C25.9289 58.4605 23.1802 55.7118 19.7945 55.7118H18.856C18.085 55.7118 17.4648 55.0916 17.4648 54.3207C17.4648 53.5497 18.085 52.9295 18.856 52.9295H19.7945C24.7054 52.9295 28.7111 56.9353 28.7111 61.8461V68.0642C28.7111 68.8352 28.091 69.4553 27.32 69.4553Z" fill="black"/>
<path d="M11.6316 69.4553C11.6316 69.4553 11.4975 69.4553 11.4472 69.4553C10.693 69.3548 10.1567 68.6508 10.2572 67.8966L11.5143 58.8795C11.6148 58.1253 12.3188 57.5889 13.073 57.6895C13.8272 57.7901 14.3636 58.494 14.263 59.2482L13.006 68.2653C12.9054 68.9525 12.3188 69.4553 11.6316 69.4553Z" fill="black"/>
<path d="M18.9895 69.4553C18.3024 69.4553 17.7157 68.9524 17.6152 68.2653L16.3581 59.2481C16.2576 58.4939 16.7771 57.79 17.5481 57.6894C18.3191 57.5888 19.0063 58.1084 19.1069 58.8794L20.3639 67.8965C20.4645 68.6507 19.9449 69.3547 19.1739 69.4553C19.1069 69.4553 19.0398 69.4553 18.9895 69.4553Z" fill="black"/>
<path d="M15.3195 50.9349C11.3472 50.9349 8.0957 47.7002 8.0957 43.7112C8.0957 39.7222 11.3305 36.4874 15.3195 36.4874C19.3085 36.4874 22.5432 39.7222 22.5432 43.7112C22.5432 47.7002 19.3085 50.9349 15.3195 50.9349ZM15.3195 39.2697C12.8724 39.2697 10.8779 41.2642 10.8779 43.7112C10.8779 46.1582 12.8724 48.1527 15.3195 48.1527C17.7665 48.1527 19.761 46.1582 19.761 43.7112C19.761 41.2642 17.7665 39.2697 15.3195 39.2697Z" fill="black"/>
<path d="M67.2267 69.4553H3.30225C2.53127 69.4553 1.91113 68.8351 1.91113 68.0642C1.91113 67.2932 2.53127 66.673 3.30225 66.673H67.2267C67.9976 66.673 68.6178 67.2932 68.6178 68.0642C68.6178 68.8351 67.9976 69.4553 67.2267 69.4553Z" fill="black"/>
<path d="M36.0515 18.3191H11.5142C10.7432 18.3191 10.123 17.6989 10.123 16.928C10.123 16.157 10.7432 15.5368 11.5142 15.5368H36.0347C36.8057 15.5368 37.4258 16.157 37.4258 16.928C37.4258 17.6989 36.8057 18.3191 36.0347 18.3191H36.0515Z" fill="black"/>
</g>
<defs>
<clipPath id="clip0_34_3490">
<rect width="86.4337" height="69.4554" fill="white"/>
</clipPath>
</defs>
</svg>
