<svg width="354" height="75" viewBox="0 0 354 75" fill="none" xmlns="http://www.w3.org/2000/svg">
<path d="M2.25069 52V22.8244L7.96076 21.8658V32.0356C9.68351 30.674 11.7119 29.9933 14.046 29.9933C16.1021 29.9933 17.9638 30.4934 19.631 31.4937C21.2982 32.494 22.618 33.8417 23.5905 35.5366C24.5908 37.2038 25.091 39.0794 25.091 41.1634C25.091 43.2473 24.5908 45.1368 23.5905 46.8318C22.5902 48.4989 21.2426 49.8327 19.5476 50.833C17.8527 51.8055 15.9632 52.2918 13.8792 52.2918C12.7956 52.2918 11.7397 52.1389 10.7116 51.8333C9.68351 51.5276 8.73878 51.0831 7.87741 50.4995V52H2.25069ZM13.129 47.4569C14.3238 47.4569 15.3936 47.1791 16.3383 46.6234C17.3108 46.0676 18.075 45.3174 18.6307 44.3727C19.1864 43.4279 19.4643 42.3582 19.4643 41.1634C19.4643 39.9685 19.1864 38.8988 18.6307 37.954C18.075 36.9815 17.3108 36.2313 16.3383 35.7034C15.3936 35.1476 14.3238 34.8698 13.129 34.8698C12.0731 34.8698 11.1006 35.0504 10.2115 35.4116C9.35008 35.745 8.59985 36.2591 7.96076 36.9537V45.4147C8.57206 46.026 9.32229 46.5261 10.2115 46.9151C11.1284 47.2763 12.1009 47.4569 13.129 47.4569ZM29.7272 52V30.285H35.4373V52H29.7272ZM32.5614 27.7009C31.6722 27.7009 30.9081 27.3814 30.269 26.7423C29.6299 26.1032 29.3104 25.3391 29.3104 24.4499C29.3104 23.533 29.6299 22.7689 30.269 22.1576C30.9081 21.5185 31.6722 21.1989 32.5614 21.1989C33.4783 21.1989 34.2425 21.5185 34.8537 22.1576C35.4928 22.7689 35.8124 23.533 35.8124 24.4499C35.8124 25.3391 35.4928 26.1032 34.8537 26.7423C34.2425 27.3814 33.4783 27.7009 32.5614 27.7009ZM41.0448 52V30.285H46.7549V32.7024C47.4495 31.7577 48.2831 31.0353 49.2556 30.5351C50.2281 30.035 51.3257 29.7849 52.5483 29.7849C53.6042 29.8127 54.3961 29.9794 54.924 30.285V35.2866C54.5072 35.0921 54.0488 34.9531 53.5486 34.8698C53.0484 34.7586 52.5344 34.7031 52.0065 34.7031C50.895 34.7031 49.8808 34.9809 48.9639 35.5366C48.0469 36.0924 47.3106 36.8843 46.7549 37.9124V52H41.0448Z" fill="black"/>
<path d="M68.7271 52V30.285H74.4372V52H68.7271ZM71.5613 27.7009C70.6721 27.7009 69.908 27.3814 69.2689 26.7423C68.6298 26.1032 68.3103 25.3391 68.3103 24.4499C68.3103 23.533 68.6298 22.7689 69.2689 22.1576C69.908 21.5185 70.6721 21.1989 71.5613 21.1989C72.4782 21.1989 73.2423 21.5185 73.8536 22.1576C74.4927 22.7689 74.8123 23.533 74.8123 24.4499C74.8123 25.3391 74.4927 26.1032 73.8536 26.7423C73.2423 27.3814 72.4782 27.7009 71.5613 27.7009ZM87.3803 61.8363C85.3241 61.8363 83.5874 61.2111 82.1703 59.9608L84.0459 57.9602C85.074 58.766 86.1577 59.1689 87.2969 59.1689C88.0471 59.1689 88.6167 59.016 89.0057 58.7104C89.3948 58.4325 89.5893 58.0574 89.5893 57.585C89.5893 57.1127 89.3809 56.7376 88.9641 56.4597C88.5751 56.1818 88.0193 56.0429 87.2969 56.0429H85.5464L86.63 52.3751C84.9628 52.2362 83.4068 51.9305 81.9619 51.4582C80.5448 50.958 79.2944 50.2773 78.2108 49.4159L81.045 45.6231C82.2954 46.4566 83.4902 47.0818 84.6294 47.4986C85.7964 47.8876 86.9496 48.0821 88.0888 48.0821C89.367 48.0821 90.3812 47.8737 91.1314 47.4569C91.9094 47.0402 92.2984 46.4844 92.2984 45.7898C92.2984 45.234 92.0761 44.7895 91.6315 44.456C91.2148 44.1226 90.534 43.8864 89.5893 43.7475L85.4213 43.1223C83.254 42.7889 81.6146 42.0942 80.5032 41.0383C79.3917 39.9547 78.836 38.5514 78.836 36.8287C78.836 35.4116 79.1972 34.189 79.9196 33.1609C80.6699 32.1328 81.7119 31.3409 83.0456 30.7852C84.4071 30.2295 86.0187 29.9516 87.8804 29.9516C89.4642 29.9516 91.0064 30.1739 92.5068 30.6185C94.0351 31.0631 95.4661 31.7438 96.7998 32.6608L94.049 36.3285C92.8541 35.6061 91.7149 35.0782 90.6312 34.7447C89.5476 34.4113 88.45 34.2446 87.3386 34.2446C86.3105 34.2446 85.4769 34.4391 84.8378 34.8281C84.2265 35.2171 83.9209 35.7311 83.9209 36.3702C83.9209 36.926 84.1432 37.3705 84.5877 37.704C85.0323 38.0374 85.7964 38.2736 86.8801 38.4125L91.048 39.0377C93.1876 39.3434 94.827 40.038 95.9662 41.1217C97.1054 42.1776 97.6751 43.553 97.6751 45.2479C97.6751 46.4983 97.3138 47.6376 96.5914 48.6656C95.8967 49.6937 94.9242 50.5273 93.6738 51.1664C92.4235 51.8055 90.9925 52.1945 89.3809 52.3334L88.9224 53.9173C90.145 54.0006 91.1036 54.3757 91.7983 55.0426C92.5207 55.7095 92.8819 56.5708 92.8819 57.6267C92.8819 58.8215 92.354 59.8218 91.2981 60.6276C90.27 61.4334 88.9641 61.8363 87.3803 61.8363ZM101.66 52V30.285H107.37V52H101.66ZM104.494 27.7009C103.605 27.7009 102.841 27.3814 102.202 26.7423C101.563 26.1032 101.243 25.3391 101.243 24.4499C101.243 23.533 101.563 22.7689 102.202 22.1576C102.841 21.5185 103.605 21.1989 104.494 21.1989C105.411 21.1989 106.175 21.5185 106.787 22.1576C107.426 22.7689 107.745 23.533 107.745 24.4499C107.745 25.3391 107.426 26.1032 106.787 26.7423C106.175 27.3814 105.411 27.7009 104.494 27.7009ZM112.978 52V30.285H118.688V31.9522C120.244 30.5629 122.133 29.8682 124.356 29.8682C125.773 29.8682 127.037 30.16 128.149 30.7435C129.26 31.2992 130.177 32.0911 130.9 33.1192C131.789 32.0634 132.831 31.2576 134.026 30.7018C135.248 30.1461 136.596 29.8682 138.069 29.8682C139.708 29.8682 141.139 30.2434 142.362 30.9936C143.612 31.716 144.584 32.7302 145.279 34.0362C146.002 35.3143 146.363 36.8148 146.363 38.5376V52H140.694V39.3711C140.694 37.954 140.319 36.8426 139.569 36.0368C138.819 35.2032 137.819 34.7864 136.568 34.7864C135.707 34.7864 134.915 34.967 134.192 35.3282C133.498 35.6895 132.9 36.2313 132.4 36.9537C132.428 37.2038 132.456 37.4539 132.484 37.704C132.511 37.954 132.525 38.2319 132.525 38.5376V52H126.815V39.3711C126.815 37.954 126.44 36.8426 125.69 36.0368C124.967 35.2032 123.981 34.7864 122.731 34.7864C121.869 34.7864 121.091 34.9531 120.397 35.2866C119.73 35.62 119.16 36.1202 118.688 36.787V52H112.978ZM162.478 52.4168C160.311 52.4168 158.352 51.9166 156.601 50.9163C154.851 49.916 153.461 48.5684 152.433 46.8734C151.405 45.1785 150.891 43.2751 150.891 41.1634C150.891 39.0516 151.391 37.1482 152.392 35.4533C153.42 33.7305 154.809 32.369 156.56 31.3687C158.338 30.3684 160.311 29.8682 162.478 29.8682C164.645 29.8682 166.604 30.3684 168.355 31.3687C170.133 32.369 171.523 33.7305 172.523 35.4533C173.551 37.1482 174.065 39.0516 174.065 41.1634C174.065 43.2751 173.551 45.1785 172.523 46.8734C171.523 48.5684 170.147 49.916 168.397 50.9163C166.646 51.9166 164.673 52.4168 162.478 52.4168ZM162.478 47.4569C163.617 47.4569 164.632 47.1791 165.521 46.6234C166.438 46.0676 167.16 45.3174 167.688 44.3727C168.244 43.4002 168.522 42.3304 168.522 41.1634C168.522 39.9685 168.244 38.8988 167.688 37.954C167.16 37.0093 166.438 36.2591 165.521 35.7034C164.632 35.1198 163.617 34.8281 162.478 34.8281C161.367 34.8281 160.352 35.1198 159.435 35.7034C158.519 36.2591 157.796 37.0093 157.268 37.954C156.74 38.8988 156.476 39.9685 156.476 41.1634C156.476 42.3304 156.74 43.4002 157.268 44.3727C157.796 45.3174 158.519 46.0676 159.435 46.6234C160.352 47.1791 161.367 47.4569 162.478 47.4569ZM178.717 52V22.8244L184.427 21.8658V52H178.717ZM198.162 52.4168C196.161 52.4168 194.313 52.1667 192.618 51.6666C190.924 51.1386 189.451 50.3884 188.2 49.4159L191.035 45.6231C192.285 46.4566 193.48 47.0818 194.619 47.4986C195.786 47.9154 196.939 48.1238 198.078 48.1238C199.357 48.1238 200.371 47.9154 201.121 47.4986C201.899 47.054 202.288 46.4844 202.288 45.7898C202.288 45.234 202.066 44.7895 201.621 44.456C201.204 44.1226 200.524 43.8864 199.579 43.7475L195.411 43.1223C193.244 42.7889 191.604 42.0942 190.493 41.0383C189.381 39.9547 188.826 38.5376 188.826 36.787C188.826 35.3699 189.187 34.1612 189.909 33.1609C190.66 32.1328 191.702 31.3409 193.035 30.7852C194.397 30.2017 196.008 29.9099 197.87 29.9099C199.454 29.9099 200.996 30.1322 202.497 30.5768C204.025 31.0214 205.456 31.7021 206.789 32.6191L204.039 36.3285C202.844 35.5783 201.705 35.0365 200.621 34.7031C199.537 34.3696 198.44 34.2029 197.328 34.2029C196.3 34.2029 195.467 34.3974 194.827 34.7864C194.216 35.1754 193.911 35.6895 193.911 36.3285C193.911 36.9121 194.133 37.3705 194.577 37.704C195.022 38.0374 195.786 38.2736 196.87 38.4125L201.038 39.0377C203.177 39.3434 204.817 40.038 205.956 41.1217C207.095 42.1776 207.665 43.553 207.665 45.2479C207.665 46.6373 207.248 47.8737 206.414 48.9574C205.581 50.0133 204.455 50.8608 203.038 51.4998C201.621 52.1111 199.996 52.4168 198.162 52.4168ZM220.069 52.4168C218.402 52.4168 216.915 52.0556 215.609 51.3331C214.331 50.5829 213.317 49.5548 212.567 48.2489C211.844 46.9429 211.483 45.4424 211.483 43.7475V30.285H217.193V42.9139C217.193 44.3032 217.596 45.4147 218.402 46.2482C219.235 47.0818 220.347 47.4986 221.736 47.4986C222.681 47.4986 223.528 47.318 224.279 46.9568C225.057 46.5678 225.696 46.026 226.196 45.3313V30.285H231.906V52H226.196V50.2495C224.529 51.6944 222.486 52.4168 220.069 52.4168ZM237.498 52V30.285H243.208V32.0773C244.848 30.6046 246.876 29.8682 249.293 29.8682C250.988 29.8682 252.475 30.2434 253.753 30.9936C255.059 31.716 256.073 32.7302 256.796 34.0362C257.518 35.3143 257.879 36.8148 257.879 38.5376V52H252.169V39.3711C252.169 37.954 251.766 36.8426 250.961 36.0368C250.155 35.2032 249.057 34.7864 247.668 34.7864C246.695 34.7864 245.834 34.9809 245.084 35.3699C244.334 35.7311 243.708 36.2591 243.208 36.9537V52H237.498Z" fill="#1C4DA1"/>
<g clip-path="url(#clip0_34_4513)">
<path d="M260.916 28.6283C262.645 28.6283 266.061 29.0092 268.852 23.9029C272.153 17.8806 274.541 10.8371 285.004 10.0428C295.467 9.24845 340.622 9.44297 354 6.94653C352.996 8.16233 351.407 9.41866 349.538 10.9668C347.636 12.5473 344.36 13.7307 339.923 13.7307C336.918 13.7307 325.491 13.6902 312.945 13.6415C300.926 13.5929 288.98 13.5281 285.358 14.2413C278.163 15.6679 276.253 20.0366 273.726 24.8755C271.198 29.7144 268.185 32.8431 261.352 32.8431L260.916 28.6283ZM278.764 19.68C282.361 18.756 290.009 18.8452 297.484 19.2828C304.959 19.7205 316.328 20.8634 320.757 21.3983C325.195 21.9333 328.093 21.8279 331.188 20.8066C334.283 19.7854 337.988 17.8482 339.923 16.1947C335.008 16.3325 315.653 15.984 308.631 15.7651C301.609 15.5544 283.646 13.4875 278.764 19.6719V19.68ZM261.698 34.5614C261.97 36.1338 262.793 39.5462 263.295 41.0619C263.806 42.61 264.588 44.1743 266.901 44.3202C269.19 44.4661 270.21 44.4985 272.162 44.3931C269.148 41.2483 266.481 37.9008 264.588 34.3101C263.682 34.456 262.719 34.5452 261.706 34.5533L261.698 34.5614ZM266.531 33.8643C267.856 35.7934 270.951 39.6921 272.203 40.9646C273.61 42.383 275.224 44.1257 278.953 43.8825C282.683 43.6393 286.791 42.456 287.498 42.3182C281.497 41.2807 274.969 38.0548 268.926 32.8512C268.177 33.2645 267.378 33.5968 266.522 33.8643H266.531ZM277.677 21.3092C277.126 22.1683 276.492 23.3436 275.981 24.3244C288.346 23.449 305.231 27.2585 310.59 27.8502C313.875 28.2149 315.818 28.377 318.782 27.0721C321.482 25.8806 323.046 25.0214 324.833 23.7408C320.091 24.0407 300.884 21.3821 292.948 20.9931C286.091 20.6607 279.925 21.1228 277.677 21.293V21.3092ZM270.729 31.6516C274.829 34.8532 283.341 38.841 286.791 39.5948C290.355 40.3729 291.59 40.8511 294.224 39.9271C296.859 39.0031 298.728 38.0872 300.761 37.1065C287.186 35.6394 280.699 31.919 272.598 29.8036C272.005 30.5087 271.388 31.1166 270.729 31.6516ZM292.067 27.4935C284.963 26.0589 277.974 25.7995 275.043 26.1075C274.582 26.9586 274.121 27.7286 273.643 28.4175C286.519 30.9788 287.63 32.2514 298.283 34.2858C302.572 35.1044 304.704 34.6911 306.071 34.1156C307.437 33.5401 310.615 31.8056 312.402 30.3709C306.985 30.6465 300.226 29.147 292.067 27.4935Z" fill="#3272DF"/>
</g>
<defs>
<clipPath id="clip0_34_4513">
<rect width="93.084" height="37.5115" fill="white" transform="translate(260.916 6.94653)"/>
</clipPath>
</defs>
</svg>
