<svg width="63" height="83" viewBox="0 0 63 83" fill="none" xmlns="http://www.w3.org/2000/svg">
<g clip-path="url(#clip0_34_3477)">
<path d="M33.6721 76.6623H29.7334C28.9624 76.6623 28.3423 76.0421 28.3423 75.2712C28.3423 74.5002 28.9624 73.8801 29.7334 73.8801H32.281V71.014C32.281 70.243 32.9012 69.6229 33.6721 69.6229H36.203C36.8734 69.6229 37.4265 69.0698 37.4265 68.3994V56.4492C37.4265 54.3373 35.7169 52.6278 33.6051 52.6278H31.7447L26.4484 55.1754C26.0629 55.3597 25.6271 55.3597 25.2416 55.1754L19.9453 52.6278H18.0849C15.9731 52.6278 14.2635 54.3373 14.2635 56.4492V68.3994C14.2635 69.0698 14.8166 69.6229 15.487 69.6229H18.0179C18.7888 69.6229 19.409 70.243 19.409 71.014V73.8801H24.1354C24.9064 73.8801 25.5266 74.5002 25.5266 75.2712C25.5266 76.0421 24.9064 76.6623 24.1354 76.6623H18.0179C17.2469 76.6623 16.6267 76.0421 16.6267 75.2712V72.4051H15.487C13.2914 72.4051 11.498 70.6118 11.498 68.4161V56.4659C11.498 52.8289 14.4646 49.8623 18.1017 49.8623H20.2805C20.4817 49.8623 20.6995 49.9126 20.8839 49.9964L25.8618 52.3931L30.8396 49.9964C31.024 49.9126 31.2251 49.8623 31.443 49.8623H33.6219C37.2589 49.8623 40.2255 52.8289 40.2255 56.4659V68.4161C40.2255 70.6118 38.4321 72.4051 36.2365 72.4051H35.0968V75.2712C35.0968 76.0421 34.4766 76.6623 33.7057 76.6623H33.6721Z" fill="#3272DF"/>
<path d="M18.0181 72.4053C17.2471 72.4053 16.627 71.7851 16.627 71.0141V58.9131C16.627 58.1421 17.2471 57.522 18.0181 57.522C18.7891 57.522 19.4092 58.1421 19.4092 58.9131V71.0141C19.4092 71.7851 18.7891 72.4053 18.0181 72.4053Z" fill="#3272DF"/>
<path d="M33.6714 72.4053C32.9004 72.4053 32.2803 71.7852 32.2803 71.0142V58.9131C32.2803 58.1422 32.9004 57.522 33.6714 57.522C34.4424 57.522 35.0625 58.1422 35.0625 58.9131V71.0142C35.0625 71.7852 34.4424 72.4053 33.6714 72.4053Z" fill="#3272DF"/>
<path d="M25.8455 48.7061C21.823 48.7061 18.5547 45.4378 18.5547 41.4153C18.5547 37.3928 21.823 34.1245 25.8455 34.1245C29.868 34.1245 33.1363 37.3928 33.1363 41.4153C33.1363 45.4378 29.868 48.7061 25.8455 48.7061ZM25.8455 36.9067C23.3482 36.9067 21.3369 38.9347 21.3369 41.4153C21.3369 43.8958 23.3649 45.9238 25.8455 45.9238C28.326 45.9238 30.3541 43.8958 30.3541 41.4153C30.3541 38.9347 28.326 36.9067 25.8455 36.9067Z" fill="#3272DF"/>
<path d="M50.2981 82.9809H1.39112C0.620137 82.9809 0 82.3607 0 81.5898V15.0842C0 14.3133 0.620137 13.6931 1.39112 13.6931H37.7446C38.1133 13.6931 38.4653 13.844 38.7334 14.0954L51.287 26.649C51.5552 26.9171 51.6893 27.2691 51.6893 27.6378V81.6065C51.6893 82.3775 51.0691 82.9976 50.2981 82.9976V82.9809ZM2.78224 80.1986H48.907V28.2077L37.1747 16.4754H2.78224V80.2154V80.1986Z" fill="black"/>
<path d="M50.2992 29.0291H37.7456C36.9746 29.0291 36.3545 28.4089 36.3545 27.6379V15.0844C36.3545 14.5313 36.6897 14.0117 37.2093 13.7938C37.7289 13.5759 38.3322 13.6932 38.7177 14.0955L51.2713 26.6491C51.6736 27.0513 51.7909 27.6379 51.573 28.1575C51.3551 28.6771 50.8523 29.0123 50.2824 29.0123L50.2992 29.0291ZM39.1367 26.2468H46.9471L39.1367 18.4365V26.2468Z" fill="black"/>
<path d="M55.7288 76.143H50.2984C49.5274 76.143 48.9073 75.5228 48.9073 74.7519C48.9073 73.9809 49.5274 73.3607 50.2984 73.3607H54.3377V21.3698L42.6054 9.63746H8.2129V15.1014C8.2129 15.8724 7.59276 16.4925 6.82178 16.4925C6.0508 16.4925 5.43066 15.8724 5.43066 15.1014V8.24634C5.43066 7.47536 6.0508 6.85522 6.82178 6.85522H43.1752C43.544 6.85522 43.8959 7.00607 44.1641 7.25748L56.7177 19.8111C56.9858 20.0792 57.1199 20.4312 57.1199 20.7999V74.7686C57.1199 75.5396 56.4998 76.1597 55.7288 76.1597V76.143Z" fill="black"/>
<path d="M55.7279 22.1738H49.2751C48.5041 22.1738 47.884 21.5537 47.884 20.7827C47.884 20.0117 48.5041 19.3916 49.2751 19.3916H52.3758L44.5654 11.5812V14.7154C44.5654 15.4864 43.9453 16.1066 43.1743 16.1066C42.4033 16.1066 41.7832 15.4864 41.7832 14.7154V8.22913C41.7832 7.67604 42.1184 7.15646 42.638 6.93858C43.1576 6.72069 43.7609 6.83802 44.1464 7.24027L56.7 19.7939C57.1023 20.1961 57.2196 20.7827 57.0017 21.3023C56.7838 21.8219 56.281 22.1571 55.7112 22.1571L55.7279 22.1738Z" fill="black"/>
<path d="M61.1605 69.2878H55.7301C54.9591 69.2878 54.3389 68.6676 54.3389 67.8966C54.3389 67.1256 54.9591 66.5055 55.7301 66.5055H59.7693V14.5146L48.037 2.78224H13.6445V8.24615C13.6445 9.01713 13.0244 9.63727 12.2534 9.63727C11.4824 9.63727 10.8623 9.01713 10.8623 8.24615V1.39112C10.8623 0.620137 11.4824 0 12.2534 0H48.6069C48.9756 0 49.3276 0.150844 49.5957 0.402251L62.1493 12.9558C62.4175 13.224 62.5516 13.576 62.5516 13.9447V67.9134C62.5516 68.6844 61.9314 69.3045 61.1605 69.3045V69.2878Z" fill="black"/>
<path d="M61.1586 15.3359H54.7393C53.9683 15.3359 53.3482 14.7158 53.3482 13.9448C53.3482 13.1738 53.9683 12.5537 54.7393 12.5537H57.8065L49.9961 4.74334V7.67642C49.9961 8.4474 49.376 9.06754 48.605 9.06754C47.834 9.06754 47.2139 8.4474 47.2139 7.67642V1.39124C47.2139 0.838148 47.5491 0.318574 48.0687 0.100688C48.5882 -0.117198 49.1916 0.000124885 49.5771 0.402376L62.1307 12.956C62.5329 13.3582 62.6503 13.9448 62.4324 14.4644C62.2145 14.984 61.7117 15.3192 61.1418 15.3192L61.1586 15.3359Z" fill="black"/>
<path d="M30.6716 24.1351H7.4751C6.70412 24.1351 6.08398 23.5149 6.08398 22.7439C6.08398 21.973 6.70412 21.3528 7.4751 21.3528H30.6716C31.4426 21.3528 32.0627 21.973 32.0627 22.7439C32.0627 23.5149 31.4426 24.1351 30.6716 24.1351Z" fill="black"/>
<path d="M30.6716 30.6048H7.4751C6.70412 30.6048 6.08398 29.9846 6.08398 29.2137C6.08398 28.4427 6.70412 27.8225 7.4751 27.8225H30.6716C31.4426 27.8225 32.0627 28.4427 32.0627 29.2137C32.0627 29.9846 31.4426 30.6048 30.6716 30.6048Z" fill="black"/>
</g>
<defs>
<clipPath id="clip0_34_3477">
<rect width="62.55" height="82.981" fill="white"/>
</clipPath>
</defs>
</svg>
