<svg width="54" height="54" viewBox="0 0 54 54" fill="none" xmlns="http://www.w3.org/2000/svg">
<circle cx="27" cy="27" r="27" fill="#016AE9"/>
<g clip-path="url(#clip0_34_2968)">
<path d="M13.5966 33.8507C13.5142 33.8507 13.4329 33.8205 13.3697 33.7631C13.278 33.6801 13.2384 33.5537 13.2658 33.4326C13.6887 31.5651 14.2221 28.3175 13.851 27.554C13.2865 26.3915 13 25.1622 13 23.9002C13 18.4411 18.4366 14 25.1189 14C31.8013 14 37.2379 18.4411 37.2379 23.9002C37.2379 29.3593 31.8017 33.8004 25.1189 33.8004C23.1191 33.8004 21.1373 33.3946 19.3885 32.6271C18.6795 32.3163 15.5277 33.2009 13.7072 33.8321C13.6709 33.8444 13.6336 33.8507 13.5966 33.8507ZM18.9526 31.8904C19.2425 31.8904 19.485 31.9232 19.6591 31.9996C21.3236 32.7303 23.2115 33.1163 25.1189 33.1163C31.4272 33.1163 36.5588 28.9822 36.5588 23.9002C36.5588 18.8182 31.4272 14.6841 25.1189 14.6841C18.8107 14.6841 13.6787 18.8186 13.6787 23.9002C13.6787 25.0568 13.9419 26.185 14.4605 27.2533C14.9551 28.2716 14.3459 31.5879 14.055 32.9937C15.2357 32.6069 17.6026 31.8908 18.9526 31.8908V31.8904Z" fill="white"/>
<path d="M39.4433 37.0004C39.4063 37.0004 39.369 36.994 39.3327 36.9817C37.6977 36.415 35.1489 35.7245 34.5963 35.9675C31.6641 37.2545 27.9258 37.2653 24.9833 35.9954C24.811 35.9213 24.7311 35.7201 24.8047 35.5461C24.8783 35.3724 25.0771 35.2912 25.2505 35.3661C28.0237 36.5625 31.561 36.5529 34.3253 35.3396C35.1471 34.979 37.7358 35.7387 38.9849 36.1441C38.7213 34.8638 38.2533 32.2298 38.6681 31.3762C39.101 30.486 39.3202 29.546 39.3202 28.5816C39.3202 27.6173 39.0836 26.6042 38.6171 25.6835C38.5317 25.5151 38.5978 25.309 38.7646 25.2233C38.9317 25.1369 39.1361 25.2039 39.2215 25.372C39.7371 26.39 39.9985 27.4698 39.9985 28.5816C39.9985 29.6935 39.756 30.6925 39.2773 31.6769C38.9719 32.3055 39.42 35.0192 39.7737 36.5819C39.8011 36.703 39.7612 36.8293 39.6699 36.9124C39.6066 36.9698 39.5253 37 39.4429 37L39.4433 37.0004Z" fill="white"/>
<path d="M19.9481 30.0311C19.7858 30.0311 19.6424 29.9134 19.614 29.7468C19.5485 29.363 19.5156 28.9711 19.5156 28.5817C19.5156 23.9628 24.1098 20.2051 29.7567 20.2051C31.2335 20.2051 32.6582 20.4562 33.9915 20.9518C34.1675 21.017 34.2573 21.2141 34.1926 21.3911C34.1279 21.5681 33.9316 21.659 33.7568 21.5938C32.4988 21.1262 31.1529 20.8892 29.7563 20.8892C24.4839 20.8892 20.194 24.3399 20.194 28.5817C20.194 28.9327 20.2239 29.2855 20.2823 29.631C20.3141 29.8173 20.1899 29.9942 20.0051 30.0259C19.9858 30.0293 19.9662 30.0308 19.947 30.0308L19.9481 30.0311Z" fill="white"/>
</g>
<defs>
<clipPath id="clip0_34_2968">
<rect width="27" height="23" fill="white" transform="translate(13 14)"/>
</clipPath>
</defs>
</svg>
