<svg width="283" height="31" viewBox="0 0 283 31" fill="none" xmlns="http://www.w3.org/2000/svg">
<path d="M1.26 20V6H8.28C9.2 6 10.0067 6.18667 10.7 6.56C11.4067 6.93333 11.96 7.45333 12.36 8.12C12.76 8.77333 12.96 9.53333 12.96 10.4C12.96 11.2267 12.76 11.9667 12.36 12.62C11.96 13.2733 11.4067 13.7867 10.7 14.16C9.99333 14.5333 9.18667 14.72 8.28 14.72H4.16V20H1.26ZM4.16 12.32H7.96C8.58667 12.32 9.08667 12.1467 9.46 11.8C9.84667 11.4533 10.04 10.9933 10.04 10.42C10.04 9.83333 9.84667 9.36667 9.46 9.02C9.08667 8.67333 8.58667 8.5 7.96 8.5H4.16V12.32ZM18.7967 20.2C17.7567 20.2 16.8167 19.96 15.9767 19.48C15.1367 19 14.4701 18.3533 13.9767 17.54C13.4834 16.7267 13.2367 15.8133 13.2367 14.8C13.2367 13.7867 13.4767 12.8733 13.9567 12.06C14.4501 11.2333 15.1167 10.58 15.9567 10.1C16.8101 9.62 17.7567 9.38 18.7967 9.38C19.8367 9.38 20.7767 9.62 21.6167 10.1C22.4701 10.58 23.1367 11.2333 23.6167 12.06C24.1101 12.8733 24.3567 13.7867 24.3567 14.8C24.3567 15.8133 24.1101 16.7267 23.6167 17.54C23.1367 18.3533 22.4767 19 21.6367 19.48C20.7967 19.96 19.8501 20.2 18.7967 20.2ZM18.7967 17.82C19.3434 17.82 19.8301 17.6867 20.2567 17.42C20.6967 17.1533 21.0434 16.7933 21.2967 16.34C21.5634 15.8733 21.6967 15.36 21.6967 14.8C21.6967 14.2267 21.5634 13.7133 21.2967 13.26C21.0434 12.8067 20.6967 12.4467 20.2567 12.18C19.8301 11.9 19.3434 11.76 18.7967 11.76C18.2634 11.76 17.7767 11.9 17.3367 12.18C16.8967 12.4467 16.5501 12.8067 16.2967 13.26C16.0434 13.7133 15.9167 14.2267 15.9167 14.8C15.9167 15.36 16.0434 15.8733 16.2967 16.34C16.5501 16.7933 16.8967 17.1533 17.3367 17.42C17.7767 17.6867 18.2634 17.82 18.7967 17.82ZM27.8256 20L24.9656 9.58H27.5656L29.2856 16.3L31.3656 9.58H33.6656L35.7256 16.32L37.4456 9.58H40.0056L37.1256 20H34.5056L32.4856 13.34L30.4656 20H27.8256ZM46.1995 20.2C45.1595 20.2 44.2129 19.96 43.3595 19.48C42.5195 19 41.8529 18.3533 41.3595 17.54C40.8662 16.7267 40.6195 15.8133 40.6195 14.8C40.6195 13.7867 40.8529 12.8733 41.3195 12.06C41.7995 11.2467 42.4462 10.6 43.2595 10.12C44.0729 9.64 44.9795 9.4 45.9795 9.4C46.9795 9.4 47.8662 9.64667 48.6395 10.14C49.4129 10.6333 50.0195 11.3 50.4595 12.14C50.9129 12.98 51.1395 13.9333 51.1395 15V15.72H43.4195C43.5395 16.1333 43.7329 16.5067 43.9995 16.84C44.2795 17.1733 44.6195 17.4333 45.0195 17.62C45.4329 17.8067 45.8729 17.9 46.3395 17.9C46.8062 17.9 47.2329 17.8267 47.6195 17.68C48.0195 17.5333 48.3595 17.3267 48.6395 17.06L50.4395 18.7C49.7995 19.22 49.1395 19.6 48.4595 19.84C47.7929 20.08 47.0395 20.2 46.1995 20.2ZM43.3795 13.76H48.4395C48.3462 13.3467 48.1729 12.9867 47.9195 12.68C47.6795 12.36 47.3862 12.1133 47.0395 11.94C46.7062 11.7533 46.3329 11.66 45.9195 11.66C45.4929 11.66 45.1062 11.7467 44.7595 11.92C44.4129 12.0933 44.1195 12.34 43.8795 12.66C43.6529 12.9667 43.4862 13.3333 43.3795 13.76ZM52.8183 20V9.58H55.5583V10.74C55.8916 10.2867 56.2916 9.94 56.7583 9.7C57.2249 9.46 57.7516 9.34 58.3383 9.34C58.8449 9.35333 59.2249 9.43333 59.4783 9.58V11.98C59.2783 11.8867 59.0583 11.82 58.8183 11.78C58.5783 11.7267 58.3316 11.7 58.0783 11.7C57.5449 11.7 57.0583 11.8333 56.6183 12.1C56.1783 12.3667 55.8249 12.7467 55.5583 13.24V20H52.8183ZM65.6722 20.2C64.6322 20.2 63.6855 19.96 62.8322 19.48C61.9922 19 61.3255 18.3533 60.8322 17.54C60.3389 16.7267 60.0922 15.8133 60.0922 14.8C60.0922 13.7867 60.3255 12.8733 60.7922 12.06C61.2722 11.2467 61.9189 10.6 62.7322 10.12C63.5455 9.64 64.4522 9.4 65.4522 9.4C66.4522 9.4 67.3389 9.64667 68.1122 10.14C68.8855 10.6333 69.4922 11.3 69.9322 12.14C70.3855 12.98 70.6122 13.9333 70.6122 15V15.72H62.8922C63.0122 16.1333 63.2055 16.5067 63.4722 16.84C63.7522 17.1733 64.0922 17.4333 64.4922 17.62C64.9055 17.8067 65.3455 17.9 65.8122 17.9C66.2789 17.9 66.7055 17.8267 67.0922 17.68C67.4922 17.5333 67.8322 17.3267 68.1122 17.06L69.9122 18.7C69.2722 19.22 68.6122 19.6 67.9322 19.84C67.2655 20.08 66.5122 20.2 65.6722 20.2ZM62.8522 13.76H67.9122C67.8189 13.3467 67.6455 12.9867 67.3922 12.68C67.1522 12.36 66.8589 12.1133 66.5122 11.94C66.1789 11.7533 65.8055 11.66 65.3922 11.66C64.9655 11.66 64.5789 11.7467 64.2322 11.92C63.8855 12.0933 63.5922 12.34 63.3522 12.66C63.1255 12.9667 62.9589 13.3333 62.8522 13.76ZM77.1891 20.14C76.2024 20.14 75.3091 19.9 74.5091 19.42C73.7091 18.94 73.0691 18.3 72.5891 17.5C72.1224 16.6867 71.8891 15.78 71.8891 14.78C71.8891 13.78 72.1224 12.88 72.5891 12.08C73.0691 11.2667 73.7157 10.6267 74.5291 10.16C75.3424 9.68 76.2557 9.44 77.2691 9.44C77.7891 9.44 78.2891 9.51333 78.7691 9.66C79.2491 9.79333 79.6957 9.99333 80.1091 10.26V6L82.8491 5.54V20H80.1491V19.14C79.2957 19.8067 78.3091 20.14 77.1891 20.14ZM77.6291 17.8C78.1357 17.8 78.5957 17.72 79.0091 17.56C79.4357 17.3867 79.8024 17.1333 80.1091 16.8V12.74C79.8024 12.4333 79.4357 12.1933 79.0091 12.02C78.5824 11.8467 78.1224 11.76 77.6291 11.76C77.0557 11.76 76.5357 11.8933 76.0691 12.16C75.6157 12.4133 75.2557 12.7733 74.9891 13.24C74.7224 13.6933 74.5891 14.2067 74.5891 14.78C74.5891 15.3533 74.7224 15.8667 74.9891 16.32C75.2557 16.7733 75.6157 17.1333 76.0691 17.4C76.5357 17.6667 77.0557 17.8 77.6291 17.8ZM89.0097 20V6L91.7497 5.54V10.42C92.5764 9.76667 93.5497 9.44 94.6697 9.44C95.6564 9.44 96.5497 9.68 97.3497 10.16C98.1497 10.64 98.783 11.2867 99.2497 12.1C99.7297 12.9 99.9697 13.8 99.9697 14.8C99.9697 15.8 99.7297 16.7067 99.2497 17.52C98.7697 18.32 98.123 18.96 97.3097 19.44C96.4964 19.9067 95.5897 20.14 94.5897 20.14C94.0697 20.14 93.563 20.0667 93.0697 19.92C92.5764 19.7733 92.123 19.56 91.7097 19.28V20H89.0097ZM94.2297 17.82C94.803 17.82 95.3164 17.6867 95.7697 17.42C96.2364 17.1533 96.603 16.7933 96.8697 16.34C97.1364 15.8867 97.2697 15.3733 97.2697 14.8C97.2697 14.2267 97.1364 13.7133 96.8697 13.26C96.603 12.7933 96.2364 12.4333 95.7697 12.18C95.3164 11.9133 94.803 11.78 94.2297 11.78C93.723 11.78 93.2564 11.8667 92.8297 12.04C92.4164 12.2 92.0564 12.4467 91.7497 12.78V16.84C92.043 17.1467 92.403 17.3867 92.8297 17.56C93.2697 17.7333 93.7364 17.82 94.2297 17.82ZM102.354 24.3C102.114 24.3 101.881 24.2867 101.654 24.26C101.441 24.2467 101.261 24.2267 101.114 24.2V21.84C101.381 21.8933 101.701 21.92 102.074 21.92C103.074 21.92 103.767 21.4467 104.154 20.5L104.314 20.1L100.254 9.58H103.274L105.874 16.68L108.814 9.58H111.774L106.974 20.84C106.614 21.68 106.221 22.3533 105.794 22.86C105.367 23.3667 104.874 23.7333 104.314 23.96C103.767 24.1867 103.114 24.3 102.354 24.3Z" fill="#181818"/>
<g clip-path="url(#clip0_105_1916)">
<path d="M263.282 12.1522C263.262 11.6054 263.434 11.1335 263.802 10.7388C264.168 10.3441 264.625 10.1368 265.174 10.1169C265.721 10.0971 266.186 10.2647 266.567 10.6197C266.949 10.9747 267.167 11.44 267.18 11.9824C267.194 12.5249 267.017 12.9923 266.651 13.3871C266.285 13.7818 265.831 13.9912 265.291 14.0177C264.75 14.0442 264.281 13.8744 263.888 13.5061C263.507 13.1511 263.304 12.6991 263.284 12.1522H263.282Z" fill="#6CBE45"/>
<path d="M270.051 5.5061C270.031 4.95924 270.203 4.48735 270.572 4.09264C270.938 3.69794 271.394 3.49066 271.943 3.47081C272.49 3.45097 272.955 3.61855 273.337 3.97357C273.732 4.33961 273.937 4.79386 273.95 5.33631C273.963 5.87875 273.787 6.34623 273.421 6.74094C273.055 7.13564 272.6 7.34513 272.06 7.37159C271.52 7.39805 271.05 7.22826 270.658 6.86001C270.265 6.49176 270.073 6.05295 270.054 5.5061H270.051Z" fill="#6CBE45"/>
<path d="M141.703 5.28552L131.278 29.4972H126.636L129.822 22.086L123 5.28552H127.92L130.517 12.6637L132.144 17.4774L133.911 12.7673L137.029 5.28552H141.706H141.703Z" fill="#1C4DA1"/>
<path d="M146.751 15.7641C147.029 17.8765 148.863 19.4002 151.842 19.4002C153.401 19.4002 155.445 18.8115 156.413 17.806L159.115 20.4741C157.313 22.344 154.369 23.2459 151.772 23.2459C145.884 23.2459 142.385 19.6097 142.385 14.1367C142.385 8.66375 145.917 5.19958 151.461 5.19958C157.004 5.19958 160.744 8.73211 160.085 15.7641H146.749H146.751ZM156.034 12.2646C155.756 10.0485 154.025 8.93939 151.6 8.93939C149.313 8.93939 147.443 10.0485 146.819 12.2646H156.032H156.034Z" fill="#1C4DA1"/>
<path d="M188.305 2.81806C188.305 6.10803 183.317 6.10803 183.317 2.81806C183.317 -0.471906 188.305 -0.471906 188.305 2.81806Z" fill="#1C4DA1"/>
<path d="M187.922 7.21729H183.697V22.7961H187.922V7.21729Z" fill="#1C4DA1"/>
<path d="M217.909 2.81806C217.909 6.10803 212.921 6.10803 212.921 2.81806C212.921 -0.471906 217.909 -0.471906 217.909 2.81806Z" fill="#1C4DA1"/>
<path d="M217.527 7.21729H213.302V22.7961H217.527V7.21729Z" fill="#1C4DA1"/>
<path d="M225.3 6.10148L225.62 8.11913C226.965 5.95816 228.771 5.64062 230.541 5.64062C232.312 5.64062 234.083 6.34845 235.037 7.30545L233.09 11.0585C232.206 10.3154 231.39 9.92508 229.975 9.92508C227.708 9.92508 225.62 10.3683 225.62 13.5899V22.7961H221.3V6.10148H225.302H225.3Z" fill="#1C4DA1"/>
<path d="M241.92 2.81806C241.92 6.10803 236.932 6.10803 236.932 2.81806C236.932 -0.471906 241.92 -0.471906 241.92 2.81806Z" fill="#6CBE45"/>
<path d="M254.12 27.8303C254.12 31.1202 249.132 31.1202 249.132 27.8303C249.132 24.5403 254.12 24.5403 254.12 27.8303Z" fill="#6CBE45"/>
<path d="M241.538 7.21729H237.313V22.7961H241.538V7.21729Z" fill="#6CBE45"/>
<path d="M256.096 10.258C254.883 9.11578 253.498 8.7343 251.871 8.7343C249.862 8.7343 248.753 9.35834 248.753 10.4322C248.753 11.5061 249.756 12.1632 251.939 12.3021C255.161 12.5094 259.247 13.2371 259.247 17.7751C259.247 20.7894 256.788 23.387 251.904 23.387C249.203 23.387 246.502 22.9372 244.008 20.3396L246.085 17.3253C247.298 18.677 250.067 19.6803 251.973 19.7156C253.567 19.7508 255.055 18.9195 255.055 17.6715C255.055 16.494 254.085 16.0088 251.662 15.8699C248.44 15.6274 244.597 14.4498 244.597 10.5711C244.597 6.69241 248.685 5.23706 251.801 5.23706C254.469 5.23706 256.477 5.75746 258.451 7.48844L256.096 10.2602V10.258Z" fill="#6CBE45"/>
<path d="M179.785 12.2381C179.745 10.8996 179.403 9.71767 178.757 8.69892C178.065 7.61182 177.103 6.76728 175.869 6.1675C174.634 5.56772 173.178 5.26562 171.5 5.26562C169.822 5.26562 168.396 5.56551 167.15 6.1675C165.904 6.76728 164.934 7.61182 164.243 8.69892C163.595 9.71767 163.256 10.8996 163.216 12.2381H163.207V22.8026H167.081L167.176 12.2381C167.538 9.92715 168.975 8.76507 171.5 8.76507C172.949 8.76507 174.049 9.1686 174.797 9.97125C175.326 10.5402 175.663 11.2987 175.818 12.2359L175.917 22.8004H179.791V12.2359H179.783L179.785 12.2381Z" fill="#1C4DA1"/>
<path d="M205.854 6.45866C204.54 5.67585 203.067 5.28556 201.435 5.28556C200.189 5.28556 199.073 5.51929 198.088 5.98236C197.102 6.44763 196.29 7.0871 195.658 7.90298V0H191.783V13.4774C191.783 15.5171 192.151 17.2723 192.888 18.7453C193.624 20.2183 194.661 21.3451 195.997 22.1279C197.333 22.9085 198.921 23.301 200.756 23.301C202.59 23.301 204.244 22.9151 205.649 22.1455C207.053 21.376 208.151 20.3109 208.945 18.9504C209.739 17.5899 210.136 16.0397 210.136 14.2933C210.136 12.5469 209.75 11.0033 208.981 9.6538C208.211 8.3065 207.168 7.24146 205.854 6.45866ZM204.663 18.269C203.688 19.2878 202.431 19.7993 200.89 19.7993C199.349 19.7993 198.085 19.29 197.1 18.269C196.114 17.2503 195.622 15.9118 195.622 14.258C195.622 12.6042 196.114 11.2679 197.1 10.247C198.085 9.22823 199.349 8.71665 200.89 8.71665C202.431 8.71665 203.688 9.22602 204.663 10.247C205.638 11.2657 206.125 12.6042 206.125 14.258C206.125 15.9118 205.638 17.2481 204.663 18.269Z" fill="#1C4DA1"/>
<path d="M265.231 23.1136V19.473C273.022 19.473 279.362 13.1356 279.362 5.3429H283.002C283.002 15.1422 275.031 23.1136 265.231 23.1136Z" fill="#6CBE45"/>
</g>
<defs>
<clipPath id="clip0_105_1916">
<rect width="160" height="30.2977" fill="white" transform="translate(123)"/>
</clipPath>
</defs>
</svg>
