<svg width="80" height="80" viewBox="0 0 80 80" fill="none" xmlns="http://www.w3.org/2000/svg">
<circle cx="40" cy="40" r="39" fill="#F8F8FD" stroke="#1C4DA1" stroke-width="2" stroke-dasharray="12 12"/>
<path d="M43.0586 36.1111H43.0697" stroke="#1C4DA1" stroke-width="2" stroke-linecap="round" stroke-linejoin="round"/>
<path d="M45.2804 31.6667H34.1693C32.3283 31.6667 30.8359 33.1591 30.8359 35V46.1111C30.8359 47.9521 32.3283 49.4445 34.1693 49.4445H45.2804C47.1213 49.4445 48.6137 47.9521 48.6137 46.1111V35C48.6137 33.1591 47.1213 31.6667 45.2804 31.6667Z" stroke="#1C4DA1" stroke-width="2" stroke-linecap="round" stroke-linejoin="round"/>
<path d="M30.8359 43.8888L35.2804 39.4444C35.7871 38.9568 36.3619 38.7001 36.947 38.7001C37.5322 38.7001 38.107 38.9568 38.6137 39.4444L44.1693 44.9999" stroke="#1C4DA1" stroke-width="2" stroke-linecap="round" stroke-linejoin="round"/>
<path d="M41.9492 42.7778L43.0603 41.6667C43.5671 41.1791 44.1419 40.9224 44.727 40.9224C45.3121 40.9224 45.8869 41.1791 46.3937 41.6667L48.6159 43.8889" stroke="#1C4DA1" stroke-width="2" stroke-linecap="round" stroke-linejoin="round"/>
</svg>
