<svg width="191" height="36" viewBox="0 0 191 36" fill="none" xmlns="http://www.w3.org/2000/svg">
<path d="M22.2238 6.28015L9.83589 35.049H4.32056L8.10662 26.2428L0 6.28015H5.84546L8.93195 15.047L10.8656 20.7667L12.9643 15.1702L16.6691 6.28015H22.2264H22.2238Z" fill="#1C4DA1"/>
<path d="M28.2191 18.7307C28.5492 21.2407 30.7291 23.0512 34.2689 23.0512C36.1213 23.0512 38.5502 22.3517 39.7004 21.1569L42.91 24.3272C40.7694 26.5491 37.2715 27.6207 34.1851 27.6207C27.1894 27.6207 23.0312 23.3001 23.0312 16.797C23.0312 10.2939 27.2287 6.17773 33.8156 6.17773C40.4026 6.17773 44.8463 10.3751 44.0629 18.7307H28.2164H28.2191ZM39.2497 14.5726C38.9196 11.9394 36.8628 10.6214 33.9807 10.6214C31.2636 10.6214 29.0418 11.9394 28.3003 14.5726H39.2471H39.2497Z" fill="#1C4DA1"/>
<path d="M77.5986 3.34841C77.5986 7.25761 71.6719 7.25761 71.6719 3.34841C71.6719 -0.560797 77.5986 -0.560797 77.5986 3.34841Z" fill="#1C4DA1"/>
<path d="M77.1451 8.57617H72.125V27.0872H77.1451V8.57617Z" fill="#1C4DA1"/>
<path d="M112.77 3.34841C112.77 7.25761 106.844 7.25761 106.844 3.34841C106.844 -0.560797 112.77 -0.560797 112.77 3.34841Z" fill="#1C4DA1"/>
<path d="M112.317 8.57617H107.297V27.0872H112.317V8.57617Z" fill="#1C4DA1"/>
<path d="M121.55 7.24975L121.93 9.64715C123.528 7.07944 125.674 6.70215 127.778 6.70215C129.882 6.70215 131.986 7.5432 133.12 8.68033L130.807 13.1398C129.756 12.2568 128.786 11.793 127.104 11.793C124.411 11.793 121.93 12.3197 121.93 16.1476V27.0866H116.797V7.24975H121.552H121.55Z" fill="#1C4DA1"/>
<path d="M141.302 3.34841C141.302 7.25761 135.375 7.25761 135.375 3.34841C135.375 -0.560797 141.302 -0.560797 141.302 3.34841Z" fill="#6CBE45"/>
<path d="M155.802 33.0681C155.802 36.9773 149.875 36.9773 149.875 33.0681C149.875 29.1589 155.802 29.1589 155.802 33.0681Z" fill="#6CBE45"/>
<path d="M140.848 8.57617H135.828V27.0872H140.848V8.57617Z" fill="#6CBE45"/>
<path d="M158.145 12.1886C156.704 10.8314 155.058 10.3782 153.125 10.3782C150.738 10.3782 149.42 11.1196 149.42 12.3956C149.42 13.6716 150.612 14.4524 153.206 14.6175C157.034 14.8638 161.889 15.7284 161.889 21.1206C161.889 24.7023 158.967 27.7888 153.164 27.7888C149.954 27.7888 146.745 27.2543 143.781 24.1678L146.249 20.5861C147.69 22.1922 150.981 23.3844 153.245 23.4263C155.139 23.4682 156.908 22.4804 156.908 20.9975C156.908 19.5983 155.755 19.0219 152.876 18.8568C149.048 18.5686 144.481 17.1695 144.481 12.5607C144.481 7.95193 149.338 6.22266 153.041 6.22266C156.211 6.22266 158.598 6.841 160.943 8.89779L158.145 12.1913V12.1886Z" fill="#6CBE45"/>
<path d="M67.4714 14.5416C67.4243 12.9512 67.0181 11.5468 66.2505 10.3363C65.4277 9.04463 64.2854 8.04113 62.8181 7.32846C61.3508 6.61579 59.6216 6.25684 57.6277 6.25684C55.6338 6.25684 53.9386 6.61317 52.4582 7.32846C50.9778 8.04113 49.825 9.04463 49.0049 10.3363C48.2346 11.5468 47.8311 12.9512 47.7839 14.5416H47.7734V27.0946H52.377L52.4896 14.5416C52.9193 11.7957 54.6276 10.4149 57.6277 10.4149C59.3491 10.4149 60.6565 10.8944 61.5447 11.8482C62.1736 12.5241 62.5744 13.4255 62.7578 14.539L62.8757 27.0919H67.4793V14.539H67.4688L67.4714 14.5416Z" fill="#1C4DA1"/>
<path d="M98.4455 7.6743C96.8839 6.74416 95.1337 6.2804 93.1948 6.2804C91.7144 6.2804 90.3886 6.55814 89.2175 7.10836C88.0463 7.6612 87.0821 8.42103 86.3301 9.39047V0H81.7266V16.0141C81.7266 18.4377 82.1641 20.5233 83.0392 22.2736C83.9144 24.0238 85.1458 25.3627 86.7336 26.2928C88.3214 27.2203 90.2079 27.6867 92.3878 27.6867C94.5677 27.6867 96.5328 27.2282 98.2018 26.3138C99.8708 25.3993 101.176 24.1338 102.119 22.5172C103.062 20.9006 103.534 19.0587 103.534 16.9836C103.534 14.9084 103.075 13.0743 102.161 11.4708C101.246 9.86995 100.007 8.60444 98.4455 7.6743ZM97.0306 21.7076C95.8725 22.9181 94.3791 23.526 92.5476 23.526C90.7162 23.526 89.2148 22.9207 88.0437 21.7076C86.8725 20.4971 86.2882 18.9067 86.2882 16.9416C86.2882 14.9765 86.8725 13.3888 88.0437 12.1757C89.2148 10.9652 90.7162 10.3573 92.5476 10.3573C94.3791 10.3573 95.8725 10.9625 97.0306 12.1757C98.1887 13.3861 98.7678 14.9765 98.7678 16.9416C98.7678 18.9067 98.1887 20.4945 97.0306 21.7076Z" fill="#1C4DA1"/>
<path d="M166.682 14.4387C166.658 13.7889 166.862 13.2282 167.3 12.7592C167.735 12.2902 168.277 12.0439 168.93 12.0204C169.579 11.9968 170.132 12.1959 170.585 12.6178C171.039 13.0396 171.298 13.5924 171.314 14.237C171.33 14.8815 171.12 15.437 170.685 15.906C170.25 16.375 169.71 16.6239 169.068 16.6553C168.427 16.6868 167.868 16.485 167.402 16.0475C166.949 15.6256 166.708 15.0885 166.684 14.4387H166.682Z" fill="#6CBE45"/>
<path d="M174.728 6.54133C174.705 5.89154 174.909 5.33084 175.347 4.86184C175.782 4.39284 176.324 4.14655 176.976 4.12297C177.626 4.09939 178.179 4.29851 178.632 4.72035C179.101 5.15529 179.345 5.69503 179.361 6.33958C179.376 6.98413 179.167 7.53959 178.732 8.00859C178.297 8.47759 177.757 8.7265 177.115 8.75794C176.473 8.78938 175.915 8.58763 175.449 8.15007C174.983 7.71252 174.755 7.19111 174.731 6.54133H174.728Z" fill="#6CBE45"/>
<path d="M169 27.4636V23.1378C178.257 23.1378 185.79 15.6076 185.79 6.34814H190.115C190.115 17.9919 180.644 27.4636 169 27.4636Z" fill="#6CBE45"/>
</svg>
