<svg width="113" height="70" viewBox="0 0 113 70" fill="none" xmlns="http://www.w3.org/2000/svg">
<g clip-path="url(#clip0_34_3504)">
<path d="M105.55 39.7478C102.466 39.7478 99.5765 37.8362 98.5121 34.7734L89.7579 9.96636C89.0845 8.07651 89.1932 6.05633 90.0621 4.25336C90.9309 2.4504 92.4298 1.10361 94.3196 0.43022C96.2095 -0.243175 98.2297 -0.112841 100.033 0.734334C101.836 1.60323 103.182 3.10208 103.856 4.99193L112.61 29.7989C113.283 31.6888 113.175 33.709 112.306 35.5119C111.437 37.3149 109.938 38.6617 108.048 39.3351C107.223 39.6175 106.397 39.7695 105.572 39.7695L105.55 39.7478ZM96.796 3.62341C96.3616 3.62341 95.9271 3.68858 95.5144 3.84064C94.5369 4.1882 93.7549 4.88331 93.3204 5.81738C92.8642 6.75144 92.8208 7.79412 93.1684 8.77163L101.922 33.5786C102.639 35.5988 104.833 36.6415 106.853 35.9464C107.831 35.5988 108.613 34.9037 109.047 33.9696C109.504 33.0356 109.547 31.9929 109.2 31.0154L100.445 6.20838C100.098 5.23087 99.4027 4.44887 98.4686 4.01442C97.9473 3.75375 97.3825 3.62341 96.796 3.62341Z" fill="#3272DF"/>
<path d="M41.3387 35.0123C40.6218 35.0123 39.8833 34.882 39.1882 34.6213C37.5807 34.0131 36.3208 32.8183 35.6691 31.2326C34.9957 29.6469 35.0174 27.9091 35.6908 26.345L41.7514 12.4861L43.1416 9.68395C45.227 5.49153 50.0494 3.31929 54.5676 4.4923L64.2558 7.03382C65.7981 7.33793 67.4056 7.72894 68.9696 8.0765C70.6422 8.4675 72.2497 8.83678 73.7702 9.14089C77.2458 9.81429 80.8083 9.37984 84.0667 7.85927L89.7797 5.18741C90.2358 4.97019 90.7789 4.97019 91.2351 5.16569C91.7129 5.36119 92.0605 5.7522 92.2343 6.23009L101.184 31.6453C101.51 32.5794 101.032 33.6003 100.076 33.9479C99.142 34.2737 98.1211 33.7958 97.7735 32.84L89.4755 9.29295L85.5655 11.1176C81.612 12.964 77.2893 13.5071 73.0534 12.6816C71.4894 12.3775 69.8385 11.9865 68.1441 11.5955C66.6018 11.248 65.0161 10.8787 63.4086 10.5529L53.6336 7.98961C50.7445 7.22932 47.6599 8.61956 46.3348 11.2914L44.988 14.0067L38.9709 27.7787C38.6885 28.4304 38.6885 29.169 38.9709 29.8206C39.2533 30.4723 39.7747 30.9936 40.4481 31.2326C41.5993 31.667 42.9027 31.2326 43.5544 30.1899L50.7662 18.8943C51.3093 18.0471 52.4171 17.8081 53.2426 18.3512C54.0897 18.8943 54.3287 20.0021 53.7856 20.8276L46.5738 32.1232C45.4225 33.9479 43.4023 34.9906 41.3387 34.9906V35.0123Z" fill="black"/>
<path d="M7.45082 42.1375C6.62537 42.1375 5.79992 42.0072 4.97447 41.7031C1.08615 40.3346 -0.955753 36.0553 0.41276 32.1887L9.16689 7.38166C10.5354 3.49335 14.8147 1.45144 18.6813 2.81996C22.5696 4.18847 24.6115 8.46778 23.243 12.3344L14.4889 37.1414C13.4028 40.2042 10.5137 42.1158 7.45082 42.1158V42.1375ZM16.205 5.99143C15.6402 5.99143 15.0754 6.12176 14.5323 6.36071C13.5983 6.81688 12.9031 7.57716 12.5556 8.55467L3.82318 33.3834C3.10634 35.3819 4.17074 37.5975 6.19092 38.3144C8.21111 39.0312 10.4051 37.9668 11.1219 35.9466L19.876 11.1396C20.5929 9.14118 19.5285 6.92549 17.5083 6.20865C17.0956 6.0566 16.6611 5.99143 16.2267 5.99143H16.205Z" fill="#3272DF"/>
<path d="M70.1851 66.9443C69.1207 66.9443 68.0563 66.7054 67.0354 66.2275L60.6055 63.1429C59.7149 62.7085 59.3239 61.6441 59.7584 60.7534C60.1928 59.8628 61.2572 59.4718 62.1478 59.9063L68.5777 62.9909C70.4241 63.8815 72.618 63.0995 73.5087 61.2531C74.3341 59.537 73.6824 57.4299 72.0098 56.4741C71.3364 56.0831 70.9889 55.3228 71.1409 54.5626C71.293 53.8023 71.9012 53.2375 72.6832 53.1289H72.857C73.2046 53.0637 73.5521 53.1289 73.8562 53.2809C75.7026 54.1715 77.9183 53.3895 78.7872 51.5431C79.5475 49.9357 79.0696 48.0024 77.6142 46.9597C76.8539 46.4166 76.6584 45.374 77.1363 44.5702L77.2232 44.4399C77.6794 43.6579 78.6569 43.3538 79.4823 43.7231C81.1767 44.4834 83.1969 43.6362 84.0658 41.8332C84.8043 40.2909 84.4568 38.4228 83.1969 37.4236C82.9579 37.2498 82.7841 37.1195 82.5886 37.0326L59.237 25.9324C58.3464 25.498 57.9554 24.4336 58.3899 23.5429C58.8243 22.6523 59.8887 22.2613 60.7793 22.6958L84.1309 33.7959C84.5654 34.0131 84.9781 34.2738 85.3908 34.5997C85.4343 34.6214 85.4777 34.6648 85.5212 34.7083C88.0192 36.7936 88.7578 40.3561 87.3024 43.419C86.2814 45.5695 84.3916 47.0032 82.2845 47.4593C82.9362 49.2623 82.8927 51.3042 82.0238 53.1289C81.0029 55.2577 79.0913 56.6479 76.9625 57.1041C77.6576 58.907 77.6359 60.9924 76.7453 62.8388C75.4854 65.4455 72.8787 66.9878 70.1634 66.9878L70.1851 66.9443Z" fill="black"/>
<path d="M61.4106 63.3167C61.1064 63.3167 60.8241 63.2515 60.5417 63.0994L50.658 57.6471C49.7891 57.1692 49.4632 56.0831 49.9628 55.1925C50.4407 54.3236 51.5486 53.9977 52.4175 54.4756L62.3012 59.928C63.1701 60.4059 63.4959 61.492 62.9963 62.3826C62.6705 62.9691 62.0622 63.3167 61.4106 63.3167Z" fill="black"/>
<path d="M72.9436 56.7131C72.6612 56.7131 72.3788 56.6479 72.1182 56.5176L56.326 48.3282C55.4353 47.872 55.1095 46.7859 55.5657 45.8953C56.0218 45.0047 57.108 44.6788 57.9986 45.135L73.7908 53.3244C74.6814 53.7805 75.0072 54.8666 74.5511 55.7573C74.2252 56.3655 73.5953 56.7348 72.9436 56.7348V56.7131Z" fill="black"/>
<path d="M78.7874 47.1548C78.5051 47.1548 78.2227 47.0896 77.962 46.9592L64.2117 39.7908C63.3211 39.3347 62.9952 38.2486 63.4514 37.3579C63.9076 36.4673 64.9937 36.1415 65.8843 36.5977L79.6346 43.7661C80.5252 44.2222 80.8511 45.3083 80.3949 46.199C80.0691 46.8072 79.4391 47.1765 78.8092 47.1765L78.7874 47.1548Z" fill="black"/>
<path d="M57.6299 69.9852C56.6089 69.9852 55.588 69.7245 54.6539 69.1814L36.6895 58.7764C31.7368 55.6266 27.6095 52.4769 24.3946 49.3923C23.4388 48.48 22.5916 47.5025 21.7662 46.5467C20.1804 44.722 18.6816 42.9842 16.6831 42.0284L11.5349 39.7476C10.6877 39.3566 10.2533 38.3791 10.5791 37.5102L19.5505 12.0298C19.7243 11.5519 20.0718 11.1609 20.5497 10.9654C21.0059 10.7699 21.549 10.7699 22.0051 10.9871L29.8035 14.593C32.7143 15.9832 37.276 16.5046 40.9253 15.8312C41.9029 15.6574 42.8369 16.3091 43.0107 17.2866C43.1845 18.2641 42.5328 19.1982 41.5553 19.3719C37.1674 20.1757 31.8237 19.5674 28.2612 17.8514L22.2875 15.0926L14.5109 37.1409L18.182 38.7701C20.8973 40.0734 22.722 42.1588 24.4815 44.1789C25.2852 45.113 26.0455 45.9819 26.8927 46.7856C29.9555 49.6964 33.8656 52.6941 38.5576 55.6918L56.4569 66.0534C57.4995 66.6399 58.8029 66.3792 59.498 65.4017C59.9107 64.8587 60.0411 64.1636 59.889 63.5119C59.737 62.8385 59.3242 62.2954 58.716 61.9696L54.4367 59.6887C53.5678 59.2326 53.2202 58.1247 53.6981 57.2558C54.1543 56.3869 55.2621 56.0394 56.131 56.5173L60.4104 58.7981C61.9309 59.6019 63.017 61.0355 63.408 62.7082C63.7991 64.3808 63.4298 66.1403 62.4088 67.5305C61.2575 69.1163 59.4546 69.9634 57.6299 69.9634V69.9852Z" fill="black"/>
<path d="M19.6796 43.6792C19.4406 43.6792 19.2017 43.6358 18.9845 43.5272C18.0721 43.1362 17.6377 42.0935 18.0287 41.1594L20.7223 34.773C21.1133 33.8607 22.1777 33.4262 23.09 33.8173C24.0023 34.2083 24.4368 35.2509 24.0458 36.185L21.3522 42.5714C21.0698 43.2665 20.3964 43.6792 19.7013 43.6792H19.6796Z" fill="black"/>
<path d="M78.7876 20.0241C78.3749 20.0241 77.9621 19.872 77.6146 19.5896C74.4431 16.8961 75.4206 11.5089 75.551 10.9007C75.7465 9.92317 76.7022 9.29322 77.658 9.48872C78.6355 9.68422 79.2655 10.6183 79.07 11.5958C78.8745 12.595 78.6138 15.7231 79.9389 16.8526C80.6992 17.5043 80.7861 18.6339 80.1344 19.3941C79.7868 19.8069 79.2655 20.0241 78.7659 20.0241H78.7876Z" fill="black"/>
<path d="M85.7184 44.3967C85.0884 44.3967 84.5019 44.0709 84.1544 43.5061C83.6548 42.6372 83.9372 41.5511 84.8061 41.0514L99.2732 32.6449C100.12 32.1453 101.228 32.4276 101.728 33.2965C102.227 34.1654 101.945 35.2516 101.076 35.7512L86.609 44.1577C86.3266 44.3315 86.0225 44.3967 85.6967 44.3967H85.7184Z" fill="black"/>
</g>
<defs>
<clipPath id="clip0_34_3504">
<rect width="113" height="69.9679" fill="white" transform="translate(0 0.0175781)"/>
</clipPath>
</defs>
</svg>
