<svg width="18" height="18" viewBox="0 0 18 18" fill="none" xmlns="http://www.w3.org/2000/svg">
<path d="M10.6875 5.625C10.6875 5.84661 10.6439 6.06604 10.559 6.27078C10.4742 6.47552 10.3499 6.66154 10.1932 6.81824C10.0365 6.97494 9.85052 7.09924 9.64578 7.18405C9.44104 7.26885 9.22161 7.3125 9 7.3125C8.77839 7.3125 8.55896 7.26885 8.35422 7.18405C8.14948 7.09924 7.96346 6.97494 7.80676 6.81824C7.65006 6.66154 7.52576 6.47552 7.44095 6.27078C7.35615 6.06604 7.3125 5.84661 7.3125 5.625C7.3125 5.40339 7.35615 5.18396 7.44095 4.97922C7.52576 4.77448 7.65006 4.58846 7.80676 4.43176C7.96346 4.27506 8.14948 4.15076 8.35422 4.06595C8.55896 3.98115 8.77839 3.9375 9 3.9375C9.22161 3.9375 9.44104 3.98115 9.64578 4.06595C9.85052 4.15076 10.0365 4.27506 10.1932 4.43176C10.3499 4.58846 10.4742 4.77449 10.559 4.97922C10.6439 5.18396 10.6875 5.40339 10.6875 5.625L10.6875 5.625Z" stroke="#7A7B7C" stroke-width="1.5" stroke-linecap="round" stroke-linejoin="round"/>
<path d="M9 7.3125V11.4375" stroke="#7A7B7C" stroke-width="1.5" stroke-linecap="round"/>
<path d="M6.75 9.75C5.08307 10.1182 3.9375 10.9291 3.9375 11.8125C3.9375 13.0551 6.20406 14.0625 9 14.0625C11.7959 14.0625 14.0625 13.0551 14.0625 11.8125C14.0625 10.9291 12.9169 10.1182 11.25 9.75" stroke="#7A7B7C" stroke-width="1.5" stroke-linecap="round" stroke-linejoin="round"/>
</svg>
