<svg width="18" height="18" viewBox="0 0 18 18" fill="none" xmlns="http://www.w3.org/2000/svg">
<path d="M3.9375 11.4375C3.9375 11.0233 4.27329 10.6875 4.6875 10.6875H6.1875C6.60171 10.6875 6.9375 11.0233 6.9375 11.4375V14.0625H4.6875C4.27329 14.0625 3.9375 13.7267 3.9375 13.3125V11.4375Z" stroke="#7A7B7C" stroke-width="1.5"/>
<path d="M6.9375 8.0625C6.9375 7.64829 7.27329 7.3125 7.6875 7.3125H9.1875C9.60171 7.3125 9.9375 7.64829 9.9375 8.0625V14.0625H6.9375V8.0625Z" stroke="#7A7B7C" stroke-width="1.5"/>
<path d="M9.9375 4.6875C9.9375 4.27329 10.2733 3.9375 10.6875 3.9375H12.1875C12.6017 3.9375 12.9375 4.27329 12.9375 4.6875V13.3125C12.9375 13.7267 12.6017 14.0625 12.1875 14.0625H9.9375V4.6875Z" stroke="#7A7B7C" stroke-width="1.5"/>
</svg>
